<?xml version="1.0" encoding="UTF-8" standalone="no"?>
<svg width="18px" height="20px" viewBox="0 0 18 20" version="1.1" xmlns="http://www.w3.org/2000/svg" xmlns:xlink="http://www.w3.org/1999/xlink" xmlns:sketch="http://www.bohemiancoding.com/sketch/ns">
    <!-- Generator: Sketch 3.2.2 (9983) - http://www.bohemiancoding.com/sketch -->
    <title>today</title>
    <desc>Created with Sketch.</desc>
    <defs></defs>
    <g id="Homepage" stroke="none" stroke-width="1" fill="none" fill-rule="evenodd" sketch:type="MSPage">
        <g id="homepage2-3" sketch:type="MSArtboardGroup" transform="translate(-387.000000, -745.000000)" fill="#CFD0C2">
            <g id="dates" sketch:type="MSLayerGroup" transform="translate(135.000000, 715.000000)">
                <g id="Group" transform="translate(20.000000, 20.000000)" sketch:type="MSShapeGroup">
                    <g id="today" transform="translate(232.000000, 10.000000)">
                        <path d="M16,2 L15,2 L15,0 L13,0 L13,2 L5,2 L5,0 L3,0 L3,2 L2,2 C0.9,2 0,2.9 0,4 L0,18 C0,19.1 0.9,20 2,20 L16,20 C17.1,20 18,19.1 18,18 L18,4 C18,2.9 17.1,2 16,2 L16,2 Z M16,18 L2,18 L2,7 L16,7 L16,18 L16,18 Z" id="Shape"></path>
                        <rect id="Rectangle-path" x="4" y="9" width="5" height="5"></rect>
                    </g>
                </g>
            </g>
        </g>
    </g>
</svg>