<?xml version="1.0" encoding="UTF-8" standalone="no"?>
<svg width="98px" height="75px" viewBox="0 0 98 75" version="1.1" xmlns="http://www.w3.org/2000/svg" xmlns:xlink="http://www.w3.org/1999/xlink" xmlns:sketch="http://www.bohemiancoding.com/sketch/ns">
    <!-- Generator: Sketch 3.2.2 (9983) - http://www.bohemiancoding.com/sketch -->
    <title>icon</title>
    <desc>Created with Sketch.</desc>
    <defs></defs>
    <g id="Welcome" stroke="none" stroke-width="1" fill="none" fill-rule="evenodd" sketch:type="MSPage">
        <g id="KS-splashpage-d1" sketch:type="MSArtboardGroup" transform="translate(-670.000000, -335.000000)" fill="#A08055">
            <g id="Group" sketch:type="MSLayerGroup" transform="translate(349.000000, 335.000000)">
                <path d="M418.04375,1.26455556 L408.552083,1.26455556 L408.552083,15.7108889 C401.69375,16.1478889 396.241667,21.9238889 396.241667,28.9813333 C396.241667,35.1077778 400.35,40.2652222 405.91875,41.8105556 C402.845833,46.702 397.4625,49.9657778 391.329167,49.9657778 C385.254167,49.9657778 379.920833,46.7632222 376.839583,41.9477778 C377.19375,41.9773333 377.552083,41.9963333 377.914583,41.9963333 C385.158333,41.9963333 391.052083,36.024 391.052083,28.6836667 C391.052083,22.9203333 387.414583,18.0162222 382.347917,16.1647778 C382.547917,15.2464444 382.660417,14.2943333 382.660417,13.3147778 C382.660417,5.97233333 376.766667,0 369.520833,0 C362.277083,0 356.383333,5.97233333 356.383333,13.3147778 C356.383333,14.2943333 356.495833,15.2464444 356.69375,16.1647778 C351.629167,18.0162222 347.989583,22.9203333 347.989583,28.6836667 C347.989583,36.024 353.885417,41.9963333 361.129167,41.9963333 C361.491667,41.9963333 361.847917,41.9773333 362.204167,41.9477778 C359.122917,46.7632222 353.789583,49.9657778 347.714583,49.9657778 C341.595833,49.9657778 336.220833,46.7188889 333.145833,41.8443333 C338.777083,40.3433333 342.95,35.1542222 342.95,28.9813333 C342.95,21.8732222 337.41875,16.0655556 330.491667,15.7024444 L330.491667,1.26666667 L321,1.26666667 L321,74.2245556 L418.04375,74.2245556 L418.04375,1.26455556 L418.04375,1.26455556 Z M377.914583,24.9871111 C379.925,24.9871111 381.560417,26.6464444 381.560417,28.6836667 C381.560417,30.7208889 379.925,32.3781111 377.914583,32.3781111 C375.904167,32.3781111 374.266667,30.7208889 374.266667,28.6836667 C374.266667,26.6464444 375.904167,24.9871111 377.914583,24.9871111 L377.914583,24.9871111 Z M369.520833,9.61822222 C371.53125,9.61822222 373.16875,11.2754444 373.16875,13.3147778 C373.16875,15.352 371.53125,17.0092222 369.520833,17.0092222 C367.510417,17.0092222 365.875,15.352 365.875,13.3147778 C365.875,11.2754444 367.510417,9.61822222 369.520833,9.61822222 L369.520833,9.61822222 Z M361.129167,32.3781111 C359.11875,32.3781111 357.483333,30.7208889 357.483333,28.6836667 C357.483333,26.6464444 359.11875,24.9871111 361.129167,24.9871111 C363.139583,24.9871111 364.775,26.6464444 364.775,28.6836667 C364.775,30.7208889 363.139583,32.3781111 361.129167,32.3781111 L361.129167,32.3781111 Z M330.491667,25.3565556 C332.177083,25.6816667 333.458333,27.1805556 333.458333,28.9813333 C333.458333,30.7842222 332.177083,32.281 330.491667,32.6082222 L330.491667,25.3565556 L330.491667,25.3565556 Z M408.552083,64.6063333 L330.491667,64.6063333 L330.491667,53.2084444 C335.152083,57.1836667 341.160417,59.584 347.714583,59.584 C356.7,59.584 364.660417,55.0725556 369.520833,48.1734444 C374.383333,55.0725556 382.34375,59.584 391.329167,59.584 C397.883333,59.584 403.891667,57.1836667 408.552083,53.2084444 L408.552083,64.6063333 L408.552083,64.6063333 Z M408.552083,32.5723333 C406.941667,32.1902222 405.733333,30.7293333 405.733333,28.9813333 C405.733333,27.2354444 406.941667,25.7745556 408.552083,25.3924444 L408.552083,32.5723333 L408.552083,32.5723333 Z" id="icon" sketch:type="MSShapeGroup"></path>
            </g>
        </g>
    </g>
</svg>