<?xml version="1.0" encoding="utf-8"?>
<!-- Generator: Adobe Illustrator 18.1.1, SVG Export Plug-In . SVG Version: 6.00 Build 0)  -->
<svg version="1.1" id="Layer_1" xmlns="http://www.w3.org/2000/svg" xmlns:xlink="http://www.w3.org/1999/xlink" x="0px" y="0px"
	 viewBox="0 0 612 792" enable-background="new 0 0 612 792" xml:space="preserve">
<g>
	<path fill="#A08055" d="M54.1,198.4l5.7-1.1v-32.1l-6.8,0.9l-5.2,10.1l-1.3-0.3l0.7-12.5h31.1l0.7,12.5l-1.3,0.3l-5.2-10.1
		l-6.8-0.9v32.1l5.7,1.1v1.7H54.1V198.4z"/>
	<path fill="#A08055" d="M81.4,198h3.9v-32.1l-4.3-1.7v-1l8.5-3.4h1.2V175l-0.9,5.4l0.1,0.1c1.6-2,3.1-3.6,4.6-4.8
		c1.5-1.2,3.3-1.8,5.3-1.8c1.3,0,2.4,0.2,3.3,0.7c0.9,0.4,1.7,1.1,2.3,1.8c0.6,0.8,1,1.7,1.3,2.8c0.3,1.1,0.4,2.2,0.4,3.4V198h3.4v2
		H98.2v-2h3.5v-16.8c0-1.4-0.3-2.4-0.8-2.9s-1.5-0.8-2.8-0.8c-0.7,0-1.3,0.1-1.9,0.2c-0.6,0.2-1.1,0.4-1.7,0.8
		c-0.6,0.4-1.2,0.8-1.8,1.4c-0.6,0.6-1.3,1.3-2,2.1V198h3.5v2H81.4V198z"/>
	<path fill="#A08055" d="M120.1,199.4c-1.5-0.7-2.7-1.7-3.7-2.9c-1-1.2-1.7-2.6-2.2-4.1s-0.7-3.2-0.7-4.8c0-1.8,0.3-3.5,0.9-5.2
		c0.6-1.6,1.4-3.1,2.5-4.3c1-1.2,2.3-2.2,3.8-3c1.5-0.7,3.1-1.1,4.9-1.1c1.4,0,2.7,0.2,3.9,0.6c1.2,0.4,2.3,1.1,3.3,2.1
		c0.9,1,1.7,2.2,2.2,3.8c0.6,1.6,0.9,3.5,0.9,5.8h-16.4v0.7c0,2.1,0.2,3.8,0.5,5.2c0.3,1.4,0.8,2.4,1.4,3.2c0.6,0.8,1.4,1.4,2.3,1.7
		c0.9,0.3,2,0.5,3.3,0.5c1.5,0,2.8-0.1,3.9-0.4c1.1-0.2,2.2-0.6,3.3-1l0.6,1.4c-1.2,0.8-2.6,1.5-4.2,2.1c-1.5,0.6-3.3,0.9-5.2,0.9
		C123.2,200.5,121.5,200.1,120.1,199.4z M123.2,176.7c-0.7,0.2-1.3,0.6-1.8,1.1c-0.5,0.5-1,1.3-1.3,2.3c-0.3,1-0.6,2.3-0.7,3.8h10.9
		c-0.1-1.5-0.2-2.8-0.4-3.8c-0.2-1-0.5-1.7-0.8-2.3c-0.4-0.6-0.9-0.9-1.4-1.1c-0.6-0.2-1.3-0.3-2.2-0.3
		C124.6,176.4,123.9,176.5,123.2,176.7z"/>
	<path fill="#A08055" d="M176.8,209.7c-1.3-0.4-2.5-1-3.6-1.8c-1.1-0.8-2.3-1.8-3.4-3.1c-1.1-1.2-2.3-2.8-3.6-4.5
		c-2.4-0.3-4.6-1-6.5-2.1c-1.9-1.1-3.6-2.5-5-4.2c-1.4-1.7-2.4-3.6-3.2-5.7c-0.7-2.1-1.1-4.3-1.1-6.5c0-2.4,0.4-4.7,1.3-7
		c0.9-2.3,2.1-4.3,3.7-6.1s3.5-3.2,5.7-4.3c2.2-1.1,4.7-1.6,7.3-1.6c2.7,0,5.1,0.5,7.4,1.6c2.3,1.1,4.2,2.5,5.9,4.3
		c1.7,1.8,3,3.8,3.9,6.1c0.9,2.3,1.4,4.6,1.4,7c0,2-0.3,4-1,6c-0.7,1.9-1.6,3.7-2.8,5.3c-1.2,1.6-2.7,3-4.4,4.2
		c-1.7,1.2-3.6,2.1-5.7,2.6c0.9,1.5,1.8,2.8,2.5,3.8c0.8,1.1,1.5,1.9,2.1,2.6c0.4,0.4,0.8,0.8,1.3,1c0.5,0.2,1.1,0.4,1.8,0.5
		c0.7,0.1,1.6,0.2,2.7,0.2c1.1,0,2.4,0,4,0v1.4c-1,0.2-2,0.3-3.2,0.5c-1.2,0.2-2.3,0.2-3.3,0.2C179.4,210.3,178,210.1,176.8,209.7z
		 M173.4,196.8c1.5-0.6,2.7-1.5,3.8-2.8c1-1.3,1.8-2.9,2.4-4.9c0.6-2,0.8-4.4,0.8-7.2c0-2.9-0.3-5.4-0.8-7.4s-1.3-3.7-2.3-5
		c-1-1.3-2.3-2.2-3.7-2.8c-1.5-0.6-3.2-0.9-5.1-0.9c-2,0-3.7,0.3-5.1,0.9c-1.4,0.6-2.6,1.5-3.5,2.8c-0.9,1.3-1.6,3-2.1,5
		c-0.4,2-0.7,4.5-0.7,7.4c0,5.6,1,9.6,2.9,12.1c1.9,2.5,4.8,3.7,8.6,3.7C170.3,197.7,171.9,197.4,173.4,196.8z"/>
	<path fill="#A08055" d="M195.6,198.1c-1.1-1.6-1.7-3.7-1.7-6.3v-15H190v-2h9.4v18.4c0,1.4,0.3,2.4,0.8,2.9c0.5,0.6,1.5,0.8,2.8,0.8
		c1.3,0,2.5-0.3,3.6-1c1.1-0.7,2.4-1.8,3.8-3.5v-15.6h-4.1v-2h9.5v20.4l4.3,1.4v1.2l-8.5,2.5h-1.1l0.7-6.2l-0.1-0.1
		c-1.6,1.9-3.1,3.5-4.6,4.6c-1.5,1.2-3.3,1.8-5.3,1.8C198.6,200.5,196.8,199.7,195.6,198.1z"/>
	<path fill="#A08055" d="M224.4,198.9c-1.2-1-1.8-2.4-1.8-4.2c0-2.3,0.9-4,2.7-5.2c1.8-1.2,4.5-2.2,7.9-2.9l4.1-0.9v-3.5
		c0-1.2-0.2-2.1-0.5-2.9c-0.3-0.7-0.7-1.3-1.3-1.7c-0.6-0.4-1.2-0.7-2.1-0.9c-0.8-0.2-1.7-0.2-2.8-0.2c-0.9,0-1.7,0.1-2.4,0.2
		c-0.7,0.2-1.1,0.3-1.5,0.5v0.2c0.8,0.2,1.4,0.6,1.8,1.2c0.4,0.6,0.6,1.2,0.6,1.9c0,0.8-0.3,1.4-0.8,1.9c-0.6,0.5-1.3,0.8-2.2,0.8
		c-0.9,0-1.7-0.3-2.3-0.9c-0.6-0.6-0.9-1.4-0.9-2.4c0-1,0.3-1.9,0.9-2.6c0.6-0.8,1.4-1.4,2.3-1.9c1-0.5,2-0.9,3.2-1.2
		c1.2-0.3,2.4-0.4,3.6-0.4c1.6,0,3,0.2,4.2,0.5c1.2,0.4,2.2,1,3,1.8c0.8,0.9,1.4,2.1,1.8,3.6c0.4,1.5,0.6,3.4,0.6,5.8v9.7
		c0,0.4,0.1,0.8,0.2,1c0.1,0.2,0.3,0.4,0.6,0.6c0.3,0.1,0.7,0.2,1.2,0.3c0.5,0.1,1.2,0.1,2,0.2v1.2c-0.4,0.3-1.1,0.6-1.9,1.1
		c-0.8,0.4-1.8,0.7-3,0.7c-1.4,0-2.5-0.4-3.3-1.1c-0.9-0.7-1.3-1.7-1.3-2.9v-0.7c-0.4,0.6-0.9,1.1-1.5,1.7c-0.6,0.6-1.3,1.1-2,1.6
		s-1.5,0.8-2.3,1.1c-0.8,0.3-1.6,0.4-2.4,0.4C227.2,200.5,225.6,200,224.4,198.9z M234.6,196.1c0.9-0.5,1.9-1.3,2.7-2.3v-6.2
		l-4.1,1.3c-1.1,0.4-1.9,0.7-2.6,1c-0.7,0.3-1.2,0.7-1.6,1.1c-0.4,0.4-0.6,0.8-0.8,1.2c-0.1,0.4-0.2,0.9-0.2,1.5
		c0,1.1,0.3,2,0.8,2.5c0.5,0.5,1.3,0.8,2.4,0.8C232.6,196.9,233.7,196.7,234.6,196.1z"/>
	<path fill="#A08055" d="M248.8,198h3.9v-17.7l-4.3-1.7v-1l8.5-3.4h1.1l-0.7,6.5l0.1,0.1c1.2-2.3,2.5-4.1,4-5.2
		c1.5-1.1,3-1.6,4.5-1.6c1.2,0,2.2,0.4,3,1.2c0.7,0.8,1.1,1.7,1.1,2.7c0,1-0.3,1.9-1,2.6c-0.7,0.7-1.5,1.1-2.5,1.1
		c-1.1,0-1.9-0.3-2.4-0.9c-0.5-0.6-0.8-1.2-0.8-2c0-0.5,0.1-0.9,0.3-1.2c0.2-0.3,0.4-0.5,0.5-0.7l-0.1-0.2c-0.9,0.1-1.9,0.7-3,1.7
		c-1.1,1-2.1,2.5-3,4.3V198h4.7v2h-14.1V198z"/>
	<path fill="#A08055" d="M271.1,176.1l4-1l3.5-9.8h1.8v9.6h6.4v2.7h-6.4v17.3c0,0.8,0.2,1.4,0.6,1.8c0.4,0.4,1.2,0.6,2.4,0.6
		c0.8,0,1.5-0.1,2-0.2c0.6-0.1,1.1-0.3,1.6-0.4l0.6,1.1c-0.8,0.7-1.8,1.4-2.9,1.9c-1.1,0.6-2.4,0.9-4,0.9c-1.2,0-2.2-0.2-3-0.6
		c-0.8-0.4-1.4-0.9-1.8-1.6c-0.4-0.7-0.7-1.5-0.9-2.4c-0.2-0.9-0.2-1.9-0.2-3v-15.5h-3.9V176.1z"/>
	<path fill="#A08055" d="M296.4,199.4c-1.5-0.7-2.7-1.7-3.7-2.9c-1-1.2-1.7-2.6-2.2-4.1c-0.5-1.5-0.7-3.2-0.7-4.8
		c0-1.8,0.3-3.5,0.9-5.2c0.6-1.6,1.4-3.1,2.5-4.3c1-1.2,2.3-2.2,3.8-3c1.5-0.7,3.1-1.1,4.9-1.1c1.4,0,2.7,0.2,3.9,0.6
		c1.2,0.4,2.3,1.1,3.3,2.1c0.9,1,1.7,2.2,2.2,3.8c0.6,1.6,0.9,3.5,0.9,5.8h-16.4v0.7c0,2.1,0.2,3.8,0.5,5.2c0.3,1.4,0.8,2.4,1.4,3.2
		c0.6,0.8,1.4,1.4,2.3,1.7c0.9,0.3,2,0.5,3.3,0.5c1.5,0,2.8-0.1,3.9-0.4c1.1-0.2,2.2-0.6,3.3-1l0.6,1.4c-1.2,0.8-2.6,1.5-4.2,2.1
		c-1.5,0.6-3.3,0.9-5.2,0.9C299.6,200.5,297.9,200.1,296.4,199.4z M299.6,176.7c-0.7,0.2-1.3,0.6-1.8,1.1c-0.5,0.5-1,1.3-1.3,2.3
		c-0.3,1-0.6,2.3-0.7,3.8h10.9c-0.1-1.5-0.2-2.8-0.4-3.8c-0.2-1-0.5-1.7-0.8-2.3c-0.4-0.6-0.9-0.9-1.4-1.1c-0.6-0.2-1.3-0.3-2.2-0.3
		C301,176.4,300.2,176.5,299.6,176.7z"/>
	<path fill="#A08055" d="M314.5,198h3.9v-17.7l-4.3-1.7v-1l8.5-3.4h1.1l-0.7,6.5l0.1,0.1c1.2-2.3,2.5-4.1,4-5.2
		c1.5-1.1,3-1.6,4.5-1.6c1.2,0,2.2,0.4,3,1.2c0.7,0.8,1.1,1.7,1.1,2.7c0,1-0.3,1.9-1,2.6c-0.7,0.7-1.5,1.1-2.5,1.1
		c-1.1,0-1.9-0.3-2.4-0.9c-0.5-0.6-0.8-1.2-0.8-2c0-0.5,0.1-0.9,0.3-1.2c0.2-0.3,0.4-0.5,0.5-0.7l-0.1-0.2c-0.9,0.1-1.9,0.7-3,1.7
		c-1.1,1-2.1,2.5-3,4.3V198h4.7v2h-14.1V198z"/>
	<path fill="#A08055" d="M344.5,199.7c-1.2-0.5-2.3-1.2-3.4-2l-1,2.4h-1.3l-0.7-9.1l1.4-0.3c0.8,1.5,1.5,2.7,2.2,3.6
		c0.7,1,1.4,1.7,2.2,2.3c0.7,0.6,1.5,1,2.3,1.2c0.8,0.2,1.7,0.3,2.7,0.3c1.8,0,3.1-0.3,3.8-1c0.7-0.7,1-1.5,1-2.6
		c0-0.7-0.1-1.3-0.4-1.8c-0.2-0.5-0.6-0.9-1.1-1.3c-0.5-0.4-1.1-0.7-1.8-0.9c-0.7-0.3-1.6-0.5-2.5-0.8c-2.1-0.6-3.7-1.2-5-1.9
		c-1.2-0.6-2.2-1.3-2.9-2c-0.7-0.7-1.1-1.5-1.4-2.3c-0.2-0.8-0.3-1.7-0.3-2.6c0-1.1,0.2-2.1,0.7-3c0.5-0.9,1.1-1.6,1.9-2.2
		c0.8-0.6,1.7-1,2.7-1.3c1-0.3,2.1-0.5,3.2-0.5c1.3,0,2.5,0.2,3.6,0.6c1.1,0.4,2,0.9,2.8,1.6l1.2-1.9h1.3l0.5,7.7l-1.3,0.3
		c-0.6-1.2-1.3-2.2-1.9-3c-0.7-0.8-1.3-1.4-2-1.8c-0.7-0.4-1.4-0.7-2.1-0.9c-0.7-0.2-1.4-0.2-2.1-0.2c-3,0-4.5,1.1-4.5,3.2
		c0,1.2,0.4,2,1.2,2.6c0.8,0.6,2,1.1,3.5,1.5c2.1,0.6,3.9,1.3,5.3,1.9c1.4,0.6,2.5,1.3,3.4,2c0.9,0.7,1.5,1.5,1.8,2.4
		c0.4,0.9,0.5,1.9,0.5,3.1c0,1-0.2,2-0.6,2.9c-0.4,0.9-1,1.7-1.8,2.3c-0.8,0.7-1.7,1.2-2.9,1.5c-1.1,0.4-2.4,0.6-3.9,0.6
		C347.1,200.5,345.6,200.2,344.5,199.7z"/>
	<path fill="#A08055" d="M380.2,199.3c-1.5-0.8-2.9-1.8-4-3c-1.1-1.2-2-2.7-2.6-4.2c-0.6-1.6-0.9-3.2-0.9-4.9c0-1.7,0.3-3.3,0.9-4.9
		c0.6-1.6,1.5-3,2.6-4.2c1.1-1.2,2.5-2.2,4-3c1.5-0.7,3.2-1.1,5-1.1c1.8,0,3.5,0.4,5,1.1c1.5,0.7,2.9,1.7,4,3c1.1,1.2,2,2.7,2.6,4.2
		c0.6,1.6,1,3.2,1,4.9c0,1.7-0.3,3.3-1,4.9c-0.6,1.6-1.5,3-2.6,4.2c-1.1,1.2-2.4,2.3-4,3c-1.5,0.8-3.2,1.1-5,1.1
		C383.4,200.5,381.7,200.1,380.2,199.3z M387.7,197.7c0.8-0.2,1.5-0.8,2.1-1.5c0.6-0.8,1.1-1.9,1.5-3.3c0.4-1.4,0.6-3.3,0.6-5.7
		c0-2.4-0.2-4.3-0.6-5.7c-0.4-1.4-0.9-2.5-1.5-3.3c-0.6-0.8-1.3-1.3-2.1-1.5c-0.8-0.2-1.6-0.3-2.5-0.3c-0.9,0-1.7,0.1-2.5,0.3
		c-0.8,0.2-1.5,0.7-2.1,1.5c-0.6,0.8-1.1,1.9-1.5,3.3c-0.4,1.4-0.6,3.3-0.6,5.7c0,2.3,0.2,4.2,0.6,5.7c0.4,1.4,0.9,2.5,1.5,3.3
		c0.6,0.8,1.3,1.3,2.1,1.5c0.8,0.2,1.7,0.4,2.5,0.4C386.1,198.1,386.9,198,387.7,197.7z"/>
	<path fill="#A08055" d="M400.5,198h3.9v-17.7l-4.3-1.7v-1l8.5-3.4h1.1l-0.7,6.2l0.1,0.1c1.6-2,3.1-3.6,4.6-4.8
		c1.5-1.2,3.3-1.8,5.3-1.8c2.6,0,4.5,0.8,5.6,2.4c1.1,1.6,1.7,3.7,1.7,6.3V198h3.4v2h-12.4v-2h3.5v-16.8c0-1.4-0.3-2.4-0.8-2.9
		c-0.5-0.6-1.5-0.8-2.8-0.8c-0.7,0-1.3,0.1-1.9,0.2c-0.6,0.2-1.1,0.4-1.7,0.8c-0.6,0.4-1.2,0.8-1.8,1.4c-0.6,0.6-1.3,1.3-2,2.1V198
		h3.5v2h-12.9V198z"/>
	<path fill="#A08055" d="M444.4,198.4l5-1.1v-31.2l-5-1.1v-1.7h15.2v1.7l-4.1,1.1V181h3.9l11.6-14.9l-4-1v-1.7h11.8v1.7l-3.8,1
		l-11.8,13.8l14.1,17.6l3.3,1v1.7h-14.1v-1.7l3.5-1.1l-10.7-14.1h-3.8v14.1l4.1,1.1v1.7h-15.2V198.4z"/>
	<path fill="#A08055" d="M482.2,198h4.2v-17.8l-4.6-1.7v-1l8.8-3.4h1.2V198h3.8v2h-13.4V198z M486.2,167.7c-0.7-0.8-1.1-1.7-1.1-2.7
		c0-1,0.4-1.9,1.1-2.7c0.7-0.8,1.6-1.2,2.6-1.2c1,0,1.9,0.4,2.6,1.2c0.7,0.8,1.1,1.7,1.1,2.7c0,1-0.4,1.9-1.1,2.7s-1.6,1.2-2.6,1.2
		C487.8,168.9,487,168.5,486.2,167.7z"/>
	<path fill="#A08055" d="M497.8,198h3.9v-17.7l-4.3-1.7v-1l8.5-3.4h1.1l-0.7,6.2l0.1,0.1c1.6-2,3.1-3.6,4.6-4.8
		c1.5-1.2,3.3-1.8,5.3-1.8c2.6,0,4.5,0.8,5.6,2.4c1.1,1.6,1.7,3.7,1.7,6.3V198h3.4v2h-12.4v-2h3.5v-16.8c0-1.4-0.3-2.4-0.8-2.9
		c-0.5-0.6-1.5-0.8-2.8-0.8c-0.7,0-1.3,0.1-1.9,0.2c-0.6,0.2-1.1,0.4-1.7,0.8c-0.6,0.4-1.2,0.8-1.8,1.4c-0.6,0.6-1.3,1.3-2,2.1V198
		h3.5v2h-12.9V198z"/>
	<path fill="#A08055" d="M536.3,211.3c-1.4-0.3-2.6-0.7-3.6-1.3s-1.9-1.3-2.6-2.2c-0.7-0.9-1-1.9-1-3c0-1.4,0.5-2.5,1.4-3.4
		c1-0.9,2.1-1.7,3.4-2.2c-1-0.3-1.8-0.8-2.2-1.4c-0.4-0.6-0.6-1.4-0.6-2.5c0-0.6,0.1-1.2,0.3-1.8c0.2-0.6,0.5-1.1,0.9-1.5
		c0.3-0.5,0.7-0.9,1.1-1.3s0.9-0.7,1.3-1c-1.2-0.8-2.2-1.8-2.9-3.1c-0.7-1.2-1-2.6-1-4c0-1.1,0.2-2.2,0.7-3.2c0.4-1,1.1-2,1.9-2.7
		c0.9-0.8,1.9-1.4,3.1-1.9s2.6-0.7,4.2-0.7c1.5,0,2.7,0.2,3.7,0.6c1,0.4,1.8,0.8,2.6,1.2c0.8,0.4,1.5,0.8,2.2,1.2
		c0.7,0.4,1.6,0.5,2.6,0.5v-0.3c-0.5-0.3-0.7-0.9-0.7-1.6c0-0.5,0.2-1,0.6-1.4c0.4-0.5,1-0.7,1.8-0.7c0.8,0,1.4,0.3,1.9,0.9
		c0.5,0.6,0.7,1.2,0.7,1.9c0,1-0.3,1.8-0.9,2.4c-0.6,0.6-1.4,0.9-2.3,0.9c-0.9,0-1.7-0.1-2.4-0.3c-0.7-0.2-1.3-0.5-1.8-0.8l-0.2,0.2
		c0.5,0.5,0.9,1.2,1.3,1.8c0.4,0.7,0.6,1.6,0.6,2.8c0,1-0.2,2-0.7,3c-0.4,1-1.1,1.9-1.9,2.6c-0.9,0.8-1.9,1.4-3.1,1.9
		c-1.2,0.5-2.6,0.7-4.1,0.7c-1.8,0-3.4-0.3-4.8-1c-0.4,0.5-0.7,1-0.9,1.5c-0.2,0.5-0.3,1-0.3,1.5c0,0.4,0.1,0.8,0.3,1
		c0.2,0.2,0.6,0.4,1.3,0.5c0.7,0.1,1.6,0.2,2.9,0.2c1.3,0,2.9,0.1,5,0.2c3.3,0.1,5.8,0.8,7.4,1.9c1.6,1.1,2.4,2.6,2.4,4.3
		c0,1.8-0.4,3.4-1.2,4.7c-0.8,1.3-1.9,2.4-3.2,3.3c-1.3,0.9-2.7,1.5-4.3,1.9c-1.6,0.4-3.2,0.6-4.8,0.6
		C539,211.8,537.7,211.6,536.3,211.3z M538.5,199.7c-1.1,0-2-0.1-2.8-0.3c-0.6,0.8-1.1,1.6-1.5,2.4s-0.6,1.8-0.6,2.9
		c0,0.5,0.1,1.1,0.2,1.6c0.1,0.5,0.4,1,0.8,1.5c0.4,0.4,1.1,0.8,1.9,1.1c0.9,0.3,2.1,0.4,3.5,0.4c1.7,0,3.2-0.1,4.4-0.4
		c1.2-0.2,2.1-0.6,2.9-1.1c0.7-0.5,1.2-1.1,1.5-1.8c0.3-0.7,0.5-1.5,0.5-2.5c0-0.8-0.1-1.5-0.3-2c-0.2-0.5-0.6-0.9-1.1-1.1
		c-0.5-0.3-1.3-0.4-2.2-0.5c-0.9-0.1-2.1-0.1-3.6-0.1C540.8,199.8,539.6,199.8,538.5,199.7z M542.7,189c0.6-0.2,1-0.5,1.3-1
		s0.6-1.2,0.7-2c0.1-0.9,0.2-2,0.2-3.4c0-1.4-0.1-2.6-0.2-3.4c-0.1-0.9-0.4-1.5-0.7-2c-0.3-0.5-0.8-0.8-1.3-0.9s-1.2-0.2-2.1-0.2
		c-0.8,0-1.5,0.1-2.1,0.2c-0.6,0.2-1,0.5-1.4,0.9c-0.3,0.5-0.6,1.1-0.7,2c-0.1,0.9-0.2,2-0.2,3.4c0,1.4,0.1,2.6,0.2,3.4
		c0.1,0.9,0.4,1.5,0.7,2c0.3,0.5,0.8,0.8,1.4,1c0.6,0.2,1.3,0.2,2.1,0.2C541.5,189.2,542.2,189.2,542.7,189z"/>
</g>
</svg>
