<?xml version="1.0" standalone="no"?>
<!DOCTYPE svg PUBLIC "-//W3C//DTD SVG 1.1//EN" "http://www.w3.org/Graphics/SVG/1.1/DTD/svg11.dtd" >
<svg xmlns="http://www.w3.org/2000/svg" xmlns:xlink="http://www.w3.org/1999/xlink" version="1.1">
<metadata></metadata>
<defs>
<font id="farnhamdisplay-regular" horiz-adv-x="1559" >
<font-face units-per-em="2048" ascent="1638" descent="-410" />
<missing-glyph horiz-adv-x="475" />
<glyph unicode="&#xfb01;" horiz-adv-x="1227" d="M33 864v56l170 38v138q0 217 119 340t292 123q137 0 233.5 -65t96.5 -181q0 -60 -38.5 -98.5t-96.5 -38.5q-54 0 -96.5 36t-42.5 91q0 53 36 91t109 42v4q-29 15 -73 26t-101 11q-124 0 -176.5 -67.5t-52.5 -217.5v-223h534l51 20h47v-913h146v-76h-475v76h121v788h-424 v-788h151v-76h-512v76h152v788h-170z" />
<glyph unicode="&#xfb02;" horiz-adv-x="1227" d="M33 864v56l170 38v164q0 206 118.5 322t286.5 115q77 0 147.5 -29t110.5 -80l131 51h47v-1425h146v-76h-475v76h121v1141q-13 -7 -25.5 -10t-26.5 -3q-46 0 -78 31t-32 80q0 44 30 76.5t87 35.5v5q-22 19 -60 32t-96 13q-119 0 -171 -57.5t-52 -200.5v-250h235v-105h-235 v-788h151v-76h-512v76h152v788h-170z" />
<glyph unicode="&#xfb03;" horiz-adv-x="1860" d="M33 864v56l170 38v144q0 209 119.5 322.5t285.5 113.5q98 0 183 -47t110 -125q55 92 148.5 142.5t197.5 50.5q137 0 233.5 -65t96.5 -181q0 -60 -38.5 -98.5t-96.5 -38.5q-54 0 -96.5 36t-42.5 91q0 53 36 91t109 42v4q-29 15 -73 26t-101 11q-124 0 -177 -67.5 t-53 -217.5v-223h535l51 20h47v-913h146v-76h-475v76h120v788h-424v-788h152v-76h-512v76h152v788h-424v-788h151v-76h-512v76h152v788h-170zM412 969h424v127q0 28 2 53.5t6 50.5q-14 -7 -29 -11.5t-31 -4.5q-46 0 -78 30.5t-32 79.5q0 45 30 77.5t87 35.5v4 q-22 20 -60 32.5t-96 12.5q-119 0 -171 -57t-52 -201v-229z" />
<glyph unicode="&#xfb04;" horiz-adv-x="1860" d="M33 864v56l170 38v144q0 205 118 320.5t287 115.5q96 0 179.5 -45.5t111.5 -120.5q57 94 151 140.5t191 46.5q76 0 147 -29t111 -80l131 51h47v-1425h146v-76h-475v76h120v1141q-12 -7 -24.5 -10t-26.5 -3q-46 0 -78 31t-32 80q0 44 30 76.5t86 35.5v5q-21 19 -59 32 t-96 13q-119 0 -171.5 -57.5t-52.5 -200.5v-250h236v-105h-236v-788h152v-76h-481v76h121v788h-424v-788h151v-76h-512v76h152v788h-170zM412 969h424v153q0 20 1.5 39t2.5 37q-13 -7 -26.5 -10.5t-29.5 -3.5q-46 0 -78 30.5t-32 79.5q0 45 30 77.5t87 35.5v4 q-22 20 -60 32.5t-96 12.5q-119 0 -171 -57t-52 -201v-229z" />
<glyph horiz-adv-x="0" />
<glyph horiz-adv-x="682" />
<glyph unicode=" "  horiz-adv-x="475" />
<glyph unicode="&#x09;" horiz-adv-x="475" />
<glyph unicode="&#xa0;" horiz-adv-x="475" />
<glyph unicode="!" horiz-adv-x="578" d="M143 127q0 57 44.5 101t101.5 44t101 -44t44 -101t-44 -100t-101 -43t-101.5 43t-44.5 100zM145 1247q0 96 48 137t96 41q47 0 95 -41t48 -137q0 -15 -1.5 -32t-4.5 -35l-92 -512v-254h-90v254l-92 512q-4 18 -5.5 35t-1.5 32z" />
<glyph unicode="&#x22;" horiz-adv-x="881" d="M119 1288q0 69 44.5 103t90.5 34t90.5 -34t44.5 -103q0 -16 -3.5 -35t-10.5 -41l-80 -221v-100h-82v100l-80 221q-7 22 -10.5 41t-3.5 35zM489 1288q0 69 45 103t91 34t90.5 -34t44.5 -103q0 -16 -3.5 -35t-11.5 -41l-79 -221v-100h-82v100l-80 221q-7 22 -11 41t-4 35z " />
<glyph unicode="#" horiz-adv-x="1063" d="M63 686l50 170l194 -35l58 197l-195 35l49 170l195 -35l65 219h101l-70 -238l199 -34l79 272h101l-84 -289l194 -35l-49 -170l-196 35l-58 -196l197 -35l-49 -170l-197 35l-63 -224h-101l70 240l-199 35l-80 -275h-100l84 293zM403 803l199 -35l57 197l-198 34z" />
<glyph unicode="$" horiz-adv-x="1114" d="M51 303q0 70 43 115t96 45q54 0 91.5 -37t37.5 -88t-29 -92t-116 -51v-5q19 -24 89.5 -62.5t221.5 -45.5v551q-157 54 -275 149t-118 279q0 143 109.5 246t283.5 116v191h90v-191q187 -10 281 -95.5t94 -192.5q0 -64 -41.5 -106t-93.5 -42q-50 0 -86.5 36t-36.5 85 q0 47 33.5 85t114.5 50v4q-22 22 -75 52t-190 34v-477q175 -55 320 -163t145 -296q0 -187 -127.5 -296.5t-337.5 -116.5v-193h-90v195q-216 13 -325 111.5t-109 205.5zM252 1133q0 -109 51 -157.5t182 -92.5v448q-117 -10 -175 -62t-58 -136zM575 82q143 6 217 63t74 168 q0 119 -65 175.5t-226 113.5v-520z" />
<glyph unicode="%" horiz-adv-x="1841" d="M82 1026q0 163 121 281t264 118q140 0 257.5 -118t117.5 -281q0 -160 -114.5 -274.5t-260.5 -114.5t-265.5 114.5t-119.5 274.5zM293 1026q0 -166 44 -234.5t130 -68.5t125 68.5t39 234.5q0 172 -39 241.5t-125 69.5t-130 -69.5t-44 -241.5zM367 0l993 1407h115 l-994 -1407h-114zM999 373q0 163 121.5 281t263.5 118q141 0 258 -118t117 -281q0 -160 -114.5 -274.5t-260.5 -114.5q-145 0 -265 114.5t-120 274.5zM1210 373q0 -166 44.5 -234.5t129.5 -68.5q86 0 125 68.5t39 234.5q0 172 -39 241.5t-125 69.5q-85 0 -129.5 -69.5 t-44.5 -241.5z" />
<glyph unicode="&#x26;" horiz-adv-x="1534" d="M59 389q0 163 101 280t291 183q-40 72 -57 131.5t-17 116.5q0 136 83 230.5t214 94.5q116 0 195 -76t79 -186q0 -93 -75 -169.5t-187 -125.5l363 -462q41 79 76 179t61 218l-148 43v57h465v-57l-188 -43q-49 -140 -100.5 -258t-108.5 -211l119 -152q31 -40 79 -56.5 t181 -23.5v-47q-45 -26 -94 -46.5t-127 -20.5q-67 0 -125.5 18t-104.5 76l-61 78q-84 -87 -186.5 -131.5t-227.5 -44.5q-237 0 -368.5 123t-131.5 282zM307 414q0 -181 88.5 -252.5t225.5 -71.5q81 0 157 34t142 103l-318 406q-35 46 -65.5 86.5t-53.5 77.5 q-99 -49 -137.5 -136t-38.5 -247zM553 1163q0 -67 24 -123t56 -102l14 -20q75 46 108 95t33 136q0 124 -37 158t-81 34q-49 0 -83 -38t-34 -140z" />
<glyph unicode="'" horiz-adv-x="510" d="M119 1288q0 69 44.5 103t90.5 34t90.5 -34t44.5 -103q0 -16 -3.5 -35t-10.5 -41l-80 -221v-100h-82v100l-80 221q-7 22 -10.5 41t-3.5 35z" />
<glyph unicode="(" horiz-adv-x="676" d="M82 625q0 302 145 536.5t314 382.5l55 -51q-146 -171 -210 -349.5t-64 -518.5q0 -341 64 -519t210 -350l-55 -51q-169 149 -314 383t-145 537z" />
<glyph unicode=")" horiz-adv-x="676" d="M80 -244q145 172 209.5 350t64.5 519q0 340 -64.5 518.5t-209.5 349.5l55 51q168 -148 313.5 -382.5t145.5 -536.5q0 -303 -145.5 -537t-313.5 -383z" />
<glyph unicode="*" horiz-adv-x="848" d="M53 1161q11 31 38 51.5t61 20.5q24 0 50.5 -12.5t51.5 -40.5l53 -62l37 -10l-22 -74l-37 10l-80 -16q-86 -16 -128 33t-24 100zM150 809q0 31 20 61.5t66 49.5l73 30l23 33l61 -45l-20 -33l-8 -80q-7 -61 -42 -90.5t-73 -29.5q-16 0 -30.5 4.5t-26.5 13.5 q-20 15 -31.5 38t-11.5 48zM322 1321q0 46 30.5 75t71.5 29t71.5 -29t30.5 -75q0 -17 -5 -37.5t-17 -40.5l-41 -72v-38h-78v38l-41 72q-12 20 -17 40.5t-5 37.5zM455 938l61 45l23 -33l73 -30q46 -19 66 -49.5t20 -61.5q0 -25 -11.5 -48t-31.5 -38q-12 -9 -27 -13.5 t-30 -4.5q-38 0 -73 29.5t-42 90.5l-8 80zM504 1108l37 10l53 62q25 28 50.5 40.5t49.5 12.5q34 0 62 -20.5t39 -51.5q18 -51 -24 -100t-128 -33l-80 16l-37 -10z" />
<glyph unicode="+" horiz-adv-x="993" d="M106 584v96h338v358h103v-358h340v-96h-340v-361h-103v361h-338z" />
<glyph unicode="," horiz-adv-x="537" d="M96 -209q81 51 119.5 102.5t44.5 108.5l-4 4q-31 -1 -82 25.5t-51 107.5q0 57 42 95t97 38q57 0 105.5 -43t48.5 -133q0 -92 -76 -192t-227 -148z" />
<glyph unicode="-" horiz-adv-x="748" d="M147 485v164h453v-164h-453z" />
<glyph unicode="&#xad;" horiz-adv-x="748" d="M147 485v164h453v-164h-453z" />
<glyph unicode="." horiz-adv-x="537" d="M123 127q0 57 44.5 101t100.5 44q57 0 101.5 -44t44.5 -101t-44.5 -100t-101.5 -43q-56 0 -100.5 43t-44.5 100z" />
<glyph unicode="/" horiz-adv-x="877" d="M49 -270l645 1771h111l-645 -1771h-111z" />
<glyph unicode="0" horiz-adv-x="1395" d="M76 698q0 274 181.5 500.5t430.5 226.5q248 0 439.5 -226.5t191.5 -500.5q0 -272 -188.5 -493t-442.5 -221t-433 221t-179 493zM332 698q0 -345 99.5 -479.5t256.5 -134.5q154 0 265.5 134.5t111.5 479.5q0 361 -108.5 493t-268.5 132q-165 0 -260.5 -133.5t-95.5 -491.5 z" />
<glyph unicode="1" horiz-adv-x="811" d="M57 0v66l242 40v1084h-236v65l400 170h65v-1319l230 -40v-66h-701z" />
<glyph unicode="2" horiz-adv-x="1036" d="M41 0v96q420 344 536.5 492.5t116.5 347.5q0 163 -74.5 269t-240.5 106q-67 0 -120.5 -21.5t-84.5 -56.5v-4q87 1 133.5 -44t46.5 -112q0 -55 -39 -96t-102 -41q-67 0 -114.5 49t-47.5 127q0 136 119 224.5t297 88.5q197 0 341 -119.5t144 -322.5q0 -222 -201 -427.5 t-526 -401.5l609 73l92 174h49l-39 -401h-895z" />
<glyph unicode="3" horiz-adv-x="1032" d="M29 281q0 69 44 114t101 45q55 0 94 -38.5t39 -90.5q0 -51 -32 -93.5t-117 -49.5v-6q24 -25 88 -52.5t176 -27.5q137 0 231.5 74.5t94.5 220.5q0 159 -98 233t-226 74q-41 0 -71 -5t-56 -11l-16 55q177 57 263.5 154t86.5 196q0 98 -53.5 156.5t-163.5 58.5 q-104 0 -167 -59.5t-63 -155.5q0 -23 4 -47.5t11 -46.5l-37 -16q-22 24 -37.5 65.5t-15.5 81.5q0 139 104.5 227t273.5 88q156 0 257.5 -83.5t101.5 -206.5q0 -106 -70.5 -178.5t-163.5 -112.5v-6q140 -19 250.5 -125t110.5 -287q0 -200 -144 -321t-358 -121 q-193 0 -317.5 90.5t-124.5 206.5z" />
<glyph unicode="4" horiz-adv-x="1210" d="M68 326v129l675 954h203v-942h184v-141h-184v-220l176 -40v-66h-596v66l193 40v220h-651zM176 467h543v707z" />
<glyph unicode="5" horiz-adv-x="1006" d="M31 268q0 78 43 122t104 44q63 0 99 -40.5t36 -94.5q0 -52 -36 -92.5t-117 -44.5v-6q26 -23 84 -48.5t157 -25.5q169 0 263 70.5t94 203.5q0 179 -149.5 271.5t-438.5 101.5l-33 35l39 645h606l80 145h49l-53 -364l-612 33v-260q313 -16 512.5 -147t199.5 -376 q0 -188 -128 -322t-379 -134q-178 0 -299 83.5t-121 200.5z" />
<glyph unicode="6" horiz-adv-x="1141" d="M78 565q0 303 231.5 543.5t655.5 339.5l18 -55q-302 -134 -425 -263t-198 -319q52 52 115 80.5t135 28.5q216 0 345.5 -145t129.5 -320q0 -176 -139.5 -323.5t-353.5 -147.5q-237 0 -375.5 182.5t-138.5 398.5zM317 459q0 -231 86.5 -308t171.5 -77q87 0 171.5 79 t84.5 302q0 226 -79.5 302.5t-167.5 76.5q-101 0 -184 -77.5t-83 -297.5z" />
<glyph unicode="7" horiz-adv-x="1071" d="M78 973l33 436h925v-139q-272 -312 -377.5 -518.5t-105.5 -448.5q0 -73 11 -108.5t11 -90.5q0 -50 -35.5 -85t-95.5 -35q-70 0 -117.5 57t-47.5 160q0 200 180 466.5t434 549.5l-678 -29l-88 -215h-49z" />
<glyph unicode="8" horiz-adv-x="1163" d="M68 414q0 139 91 242t242 145q-104 34 -168.5 106t-64.5 176q0 146 120.5 244t293.5 98q172 0 292.5 -98t120.5 -244q0 -104 -64.5 -176t-168.5 -106q150 -42 242 -145t92 -242q0 -175 -145.5 -302.5t-368.5 -127.5t-368.5 127.5t-145.5 302.5zM317 414 q0 -201 80.5 -270.5t184.5 -69.5t183 69.5t79 270.5q0 203 -79 273.5t-183 70.5t-184.5 -70.5t-80.5 -273.5zM401 1083q0 -152 59 -198.5t122 -46.5t120.5 46.5t57.5 198.5q0 156 -57.5 203t-120.5 47t-122 -47t-59 -203z" />
<glyph unicode="9" horiz-adv-x="1141" d="M55 948q0 176 141.5 326.5t358.5 150.5q249 0 378.5 -177.5t129.5 -381.5q0 -315 -219.5 -562.5t-626.5 -342.5l-18 55q289 127 408.5 262.5t172.5 319.5q-50 -51 -113 -80t-137 -29q-215 0 -345 142t-130 317zM309 954q0 -226 79.5 -302.5t168.5 -76.5q101 0 183.5 79 t82.5 309q0 222 -84.5 297t-173.5 75q-87 0 -171.5 -79t-84.5 -302z" />
<glyph unicode=":" horiz-adv-x="553" d="M131 127q0 57 44.5 101t100.5 44q57 0 101.5 -44t44.5 -101t-44.5 -100t-101.5 -43q-56 0 -100.5 43t-44.5 100zM131 666q0 56 44.5 99.5t100.5 43.5q57 0 101.5 -43.5t44.5 -99.5q0 -57 -44.5 -100.5t-101.5 -43.5q-56 0 -100.5 43.5t-44.5 100.5z" />
<glyph unicode=";" horiz-adv-x="553" d="M104 -209q81 51 119.5 102.5t44.5 108.5l-4 4q-31 -1 -82 25.5t-51 107.5q0 57 42.5 95t96.5 38q57 0 105.5 -43t48.5 -133q0 -92 -76 -192t-227 -148zM131 666q0 56 44.5 99.5t100.5 43.5q57 0 101.5 -43.5t44.5 -99.5q0 -57 -44.5 -100.5t-101.5 -43.5 q-56 0 -100.5 43.5t-44.5 100.5z" />
<glyph unicode="&#x3c;" horiz-adv-x="780" d="M68 575v91q183 43 316.5 137t254.5 231l63 -53q-82 -115 -196 -209.5t-244 -150.5q130 -57 244 -151.5t196 -209.5l-63 -53q-121 137 -254.5 231t-316.5 137z" />
<glyph unicode="=" horiz-adv-x="993" d="M106 430v96h781v-96h-781zM106 737v97h781v-97h-781z" />
<glyph unicode="&#x3e;" horiz-adv-x="780" d="M78 260q82 115 196 209.5t244 151.5q-130 56 -244 150.5t-196 209.5l63 53q121 -137 254.5 -231t317.5 -137v-91q-184 -43 -317.5 -137t-254.5 -231z" />
<glyph unicode="?" horiz-adv-x="926" d="M68 1157q0 92 89.5 180t264.5 88q194 0 297.5 -100.5t103.5 -241.5q0 -160 -99.5 -244.5t-252.5 -168.5q-55 -31 -71.5 -58t-16.5 -59q0 -40 40.5 -54.5t158.5 -17.5v-53q-22 -10 -56.5 -20.5t-79.5 -10.5q-73 0 -124.5 47t-51.5 129q0 78 59.5 148t137.5 139 q76 67 111.5 121t35.5 133q0 122 -67 165.5t-168 43.5q-110 0 -177.5 -58.5t-66.5 -148.5h4q17 34 42 50t57 16q41 0 74.5 -30.5t33.5 -76.5q0 -47 -33 -78.5t-82 -31.5q-82 0 -122.5 57t-40.5 135zM285 127q0 57 44 101t101 44t101 -44t44 -101t-44 -100t-101 -43t-101 43 t-44 100z" />
<glyph unicode="@" horiz-adv-x="1798" d="M63 322q0 365 295.5 697.5t720.5 332.5q277 0 466.5 -165t189.5 -431q0 -313 -164 -557t-363 -244q-102 0 -161.5 65t-59.5 175v28l139 346l-4 2q-139 -260 -266.5 -423.5t-255.5 -163.5q-70 0 -112 48.5t-42 141.5q0 255 185.5 541t382.5 286q53 0 91 -24.5t60 -58.5 l21 71h196l-227 -839q-13 -52 3 -76.5t59 -24.5q154 0 254 205.5t100 486.5q0 257 -129.5 390t-368.5 133q-351 0 -584 -280.5t-233 -645.5q0 -310 137.5 -455t411.5 -145q136 0 277 30t243 62l23 -51q-101 -54 -252.5 -94.5t-311.5 -40.5q-310 0 -515.5 197t-205.5 481z M657 201q0 -38 11 -53t30 -15q45 0 131.5 81t239.5 345l72 268q-20 45 -50 69t-81 24q-92 0 -176 -129t-150 -416q-13 -61 -20 -103.5t-7 -70.5z" />
<glyph unicode="A" horiz-adv-x="1604" d="M20 0v66l181 40l581 1324h88l553 -1324l160 -40v-66h-600v66l188 40l-167 422h-500l-168 -422l178 -40v-66h-494zM541 623h424l-211 530z" />
<glyph unicode="B" horiz-adv-x="1333" d="M72 0v66l192 40v1197l-192 40v66h624q213 0 356.5 -90.5t143.5 -271.5q0 -129 -97 -204t-231 -98v-10q178 -19 292 -105.5t114 -254.5q0 -182 -147 -278.5t-367 -96.5h-688zM500 96h233q162 0 227.5 53.5t65.5 225.5q0 157 -68.5 237t-252.5 80h-205v-596zM500 778h135 q193 0 259.5 56t66.5 213q0 159 -63 212.5t-228 53.5h-170v-535z" />
<glyph unicode="C" horiz-adv-x="1360" d="M76 705q0 273 192 496.5t492 223.5q130 0 213.5 -39t146.5 -83l54 106h51l49 -504l-47 -12q-137 269 -236.5 349.5t-230.5 80.5q-200 0 -309 -125.5t-109 -513.5q0 -340 113.5 -470t328.5 -130q151 0 268 72.5t189 187.5l64 -45q-89 -151 -223 -233t-322 -82 q-306 0 -495 216.5t-189 504.5z" />
<glyph unicode="D" horiz-adv-x="1540" d="M72 0v66l192 40v1197l-192 40v66h649q344 0 543.5 -215.5t199.5 -488.5q0 -272 -199.5 -488.5t-543.5 -216.5h-649zM502 94h184q284 0 404 131t120 480q0 365 -126 486.5t-398 121.5h-184v-1219z" />
<glyph unicode="E" horiz-adv-x="1358" d="M72 0v66l192 40v1197l-192 40v66h1104l49 -395l-43 -10l-203 303l-477 36v-587l258 16l84 207h49v-500h-49l-84 191l-258 14v-612l553 30l219 369l49 -10l-61 -461h-1190z" />
<glyph unicode="F" horiz-adv-x="1286" d="M72 0v66l192 40v1197l-192 40v66h1124l49 -440l-43 -6l-215 350l-485 30v-598l278 17l84 213h49v-512h-49l-84 196l-278 17v-570l198 -40v-66h-628z" />
<glyph unicode="G" horiz-adv-x="1503" d="M76 705q0 273 189 496.5t495 223.5q137 0 222.5 -39.5t145.5 -85.5l46 109h47l57 -465l-51 -12q-118 213 -214 302t-247 89q-193 0 -313.5 -123t-120.5 -516q0 -341 115.5 -471.5t340.5 -130.5q86 0 155.5 22t127.5 62v364l-192 41v66h581v-66l-155 -41v-530h-48l-86 166 q-75 -81 -181.5 -131.5t-239.5 -50.5q-315 0 -494.5 216.5t-179.5 504.5z" />
<glyph unicode="H" horiz-adv-x="1677" d="M70 0v66l192 40v1197l-192 40v66h606v-66l-176 -40v-545h678v545l-177 40v66h607v-66l-193 -40v-1197l193 -40v-66h-607v66l177 40v558h-678v-558l176 -40v-66h-606z" />
<glyph unicode="I" horiz-adv-x="782" d="M72 0v66l200 40v1197l-200 40v66h639v-66l-201 -40v-1197l201 -40v-66h-639z" />
<glyph unicode="J" horiz-adv-x="766" d="M-143 -213q0 63 35.5 101t93.5 38q54 0 92.5 -35.5t38.5 -87.5q0 -40 -22.5 -65.5t-59.5 -38.5v-4q13 -3 33 -4.5t36 -1.5q101 0 134.5 57.5t33.5 177.5v1379l-200 40v66h622v-66l-184 -40v-1242q0 -221 -109 -334.5t-274 -113.5q-131 0 -200.5 52.5t-69.5 121.5z" />
<glyph unicode="K" horiz-adv-x="1470" d="M72 0v66l192 40v1197l-192 40v66h585v-66l-155 -40v-572h137l453 574l-152 38v66h453v-66l-148 -38l-459 -519l547 -684l127 -36v-66h-540v66l135 40l-408 543h-145v-543l155 -40v-66h-585z" />
<glyph unicode="L" horiz-adv-x="1274" d="M72 0v66l192 40v1197l-192 40v66h628v-66l-198 -40v-1231l471 37l231 385l49 -11l-69 -483h-1112z" />
<glyph unicode="M" horiz-adv-x="1927" d="M72 0v66l192 40v1197l-192 40v66h491l412 -1034l377 1034h503v-66l-192 -40v-1197l192 -40v-66h-602v66l172 40v1207l-481 -1272h-72l-530 1272l59 -1207l174 -40v-66h-503z" />
<glyph unicode="N" horiz-adv-x="1583" d="M72 0v66l192 40v1197l-192 40v66h456l740 -1024l-47 918l-213 40v66h524v-66l-176 -40v-1323h-64l-950 1294l57 -1168l217 -40v-66h-544z" />
<glyph unicode="O" d="M76 698q0 274 198 500.5t506 226.5q309 0 506 -226.5t197 -500.5q0 -272 -195.5 -493t-507.5 -221q-313 0 -508.5 221t-195.5 493zM332 698q0 -345 118 -479.5t330 -134.5q208 0 328.5 134.5t120.5 479.5q0 361 -116 493t-333 132q-219 0 -333.5 -133.5t-114.5 -491.5z " />
<glyph unicode="P" horiz-adv-x="1311" d="M70 0v66l192 40v1197l-192 40v66h663q220 0 376.5 -109.5t156.5 -306.5q0 -185 -131.5 -308.5t-354.5 -123.5q-35 0 -72 4t-75 10l-133 23v-492l198 -40v-66h-628zM500 678l168 -14q28 -4 52 -4.5t46 -0.5q168 0 211 78t43 256q0 205 -68 263.5t-243 58.5h-209v-637z" />
<glyph unicode="Q" d="M76 698q0 274 193.5 500.5t500.5 226.5q306 0 509.5 -226.5t203.5 -500.5q0 -232 -148.5 -431.5t-388.5 -260.5q41 -84 77 -146.5t67 -101.5q38 -47 93 -59t226 -12v-56q-54 -9 -107.5 -15.5t-107.5 -6.5q-178 0 -286.5 88.5t-229.5 292.5q-275 35 -438.5 245.5 t-163.5 462.5zM332 698q0 -345 112.5 -479.5t325.5 -134.5q208 0 333.5 134.5t125.5 479.5q0 361 -121.5 493t-337.5 132q-222 0 -330 -133.5t-108 -491.5z" />
<glyph unicode="R" horiz-adv-x="1446" d="M72 0v66l192 40v1197l-192 40v66h649q213 0 367.5 -97.5t154.5 -287.5q0 -163 -123.5 -247t-304.5 -109v-4q104 -14 175 -62t140 -178l170 -318l136 -40v-66h-299q-46 0 -67 11t-32 40q-145 385 -196.5 482.5t-214.5 97.5h-125v-525l198 -40v-66h-628zM502 725h153 q204 0 273 58.5t69 240.5q0 185 -64.5 238t-236.5 53h-194v-590z" />
<glyph unicode="S" horiz-adv-x="1155" d="M74 506l53 16q139 -251 234 -345.5t255 -94.5q119 0 198 56t79 184q0 101 -56 162t-290 139q-250 83 -342 179t-92 247q0 168 109 272t300 104q107 0 186 -35.5t123 -70.5l46 90h51l45 -424l-47 -10q-119 201 -199.5 276.5t-208.5 75.5q-107 0 -172 -55t-65 -156 q0 -68 40 -124.5t277 -129.5q281 -87 382 -195.5t101 -263.5q0 -193 -124 -306t-343 -113q-140 0 -233 45t-150 96l-53 -125h-53z" />
<glyph unicode="T" horiz-adv-x="1348" d="M47 928l29 481h1196l28 -481l-49 -10l-198 393l-260 32v-1237l219 -40v-66h-676v66l219 40v1237l-260 -32l-199 -393z" />
<glyph unicode="U" horiz-adv-x="1616" d="M72 1343v66h575v-66l-155 -40v-820q0 -229 84.5 -306t291.5 -77q202 0 286.5 81t84.5 311v811l-176 40v66h481v-66l-160 -40l-49 -877q-12 -231 -136.5 -336.5t-375.5 -105.5q-247 0 -408 120t-161 359v840z" />
<glyph unicode="V" horiz-adv-x="1546" d="M31 1343v66h590v-66l-172 -40l393 -1059l381 1059l-191 40v66h484v-66l-154 -40l-549 -1323h-92l-528 1323z" />
<glyph unicode="W" horiz-adv-x="2214" d="M31 1343v66h573v-66l-182 -40l369 -1031l256 791l-93 240l-157 40v66h583v-66l-200 -40l393 -1020l301 1020l-176 40v66h485v-66l-174 -40l-457 -1323h-88l-362 938l-336 -938h-88l-496 1323z" />
<glyph unicode="X" horiz-adv-x="1466" d="M31 0v66l166 40l424 601l-422 596l-138 40v66h592v-66l-180 -40l313 -480l287 480l-170 40v66h481v-66l-163 -40l-387 -545l456 -652l146 -40v-66h-592v66l172 40l-346 529l-326 -529l168 -40v-66h-481z" />
<glyph unicode="Y" horiz-adv-x="1491" d="M31 1343v66h602v-66l-178 -51l370 -604l328 615l-184 40v66h491v-66l-162 -40l-419 -682v-515l198 -40v-66h-635v66l199 40v490l-457 696z" />
<glyph unicode="Z" horiz-adv-x="1280" d="M53 0v53l893 1290l-555 -36l-203 -303l-43 12l50 393h1032v-43l-897 -1298l612 34l219 365l49 -14l-61 -453h-1096z" />
<glyph unicode="[" horiz-adv-x="797" d="M180 -270v1771h518v-65l-313 -33v-1575l313 -33v-65h-518z" />
<glyph unicode="\" horiz-adv-x="877" d="M72 1501h110l643 -1771h-110z" />
<glyph unicode="]" horiz-adv-x="797" d="M98 -205l314 33v1575l-314 33v65h518v-1771h-518v65z" />
<glyph unicode="^" horiz-adv-x="889" d="M66 850q141 146 200.5 251.5t90.5 213.5q18 62 33.5 86t49.5 24q35 0 52 -23.5t36 -86.5q33 -108 95 -213.5t200 -251.5l-45 -45l-334 262l-333 -262z" />
<glyph unicode="_" horiz-adv-x="705" d="M-16 -172h737v-102h-737v102z" />
<glyph unicode="`" horiz-adv-x="1024" d="M258 1356q0 15 5.5 31t12.5 28q11 19 33 30t47 11q26 0 54.5 -13.5t56.5 -45.5l156 -183l90 -59l-37 -63l-92 59l-226 88q-53 22 -76.5 53.5t-23.5 63.5z" />
<glyph unicode="a" horiz-adv-x="1026" d="M63 203q0 130 106.5 197t303.5 108l156 33v141q0 133 -66.5 175t-185.5 42q-55 0 -99 -8.5t-69 -16.5v-4q63 -16 86.5 -53t23.5 -74q0 -44 -32 -74t-82 -30q-54 0 -87.5 36t-33.5 91q0 115 130.5 175t254.5 60q182 0 275.5 -91.5t93.5 -358.5v-371q0 -47 29 -60t124 -18 v-47q-25 -16 -72.5 -41.5t-113.5 -25.5q-77 0 -126.5 41.5t-49.5 111.5v43q-51 -75 -137 -137.5t-179 -62.5q-111 0 -180.5 60t-69.5 159zM274 246q0 -66 30 -95.5t91 -29.5q74 0 128.5 30.5t105.5 81.5v259l-156 -54q-125 -43 -162 -85.5t-37 -106.5z" />
<glyph unicode="b" horiz-adv-x="1159" d="M-4 1339v27l328 135h47v-540l-33 -220l4 -2q73 107 162.5 184.5t214.5 77.5q162 0 269.5 -140.5t107.5 -362.5q0 -236 -130 -375t-321 -139q-76 0 -164.5 32.5t-175.5 130.5l-96 -147h-47v1264zM371 164q49 -43 102.5 -66.5t126.5 -23.5q54 0 101 14.5t81 46.5 q46 45 67 134t21 229q0 136 -18.5 221.5t-63.5 120.5q-27 21 -63.5 27.5t-60.5 6.5q-110 0 -168 -46t-125 -115v-549z" />
<glyph unicode="c" horiz-adv-x="940" d="M59 494q0 191 127.5 349t364.5 158q147 0 237.5 -61.5t90.5 -169.5q0 -51 -35 -90t-94 -39q-52 0 -89.5 35t-37.5 86q0 49 29.5 82.5t82.5 52.5v4q-26 7 -64.5 13t-99.5 6q-125 0 -204.5 -80.5t-79.5 -325.5q0 -254 82 -340t229 -86q75 0 129.5 15t114.5 36l20 -45 q-69 -44 -147.5 -77t-190.5 -33q-226 0 -345.5 159.5t-119.5 350.5z" />
<glyph unicode="d" horiz-adv-x="1200" d="M63 487q0 236 128 375t319 139q75 0 147 -28t131 -88v379l-165 75v27l327 135h47v-1317l166 -55v-47l-327 -94h-41l26 256l-4 2q-69 -124 -153 -193t-197 -69q-181 0 -292.5 140.5t-111.5 362.5zM289 469q0 -136 25 -221.5t69 -120.5q28 -22 58 -28.5t55 -6.5 q102 0 165 53.5t127 126.5v537q-47 38 -104.5 61t-132.5 23q-55 0 -97.5 -15t-76.5 -47q-46 -44 -67 -133.5t-21 -228.5z" />
<glyph unicode="e" horiz-adv-x="965" d="M59 479q0 207 129 364.5t330 157.5q156 0 274 -99.5t121 -350.5h-630v-47q0 -246 70.5 -330t215.5 -84q86 0 150.5 14.5t128.5 38.5l20 -45q-72 -46 -159 -80t-197 -34q-226 0 -339.5 152t-113.5 343zM287 635h415q-9 168 -48.5 226.5t-141.5 58.5q-84 0 -146.5 -49 t-78.5 -236z" />
<glyph unicode="f" horiz-adv-x="678" d="M33 864v56l170 38v175q0 208 109 317t247 109q125 0 187.5 -57.5t62.5 -160.5q0 -51 -35 -87.5t-90 -36.5q-51 0 -86 33t-35 77q0 55 34.5 88t94.5 37v4q-21 10 -46 15.5t-56 5.5q-98 0 -138 -52.5t-40 -160.5v-295h235v-105h-235v-788h176v-76h-537v76h152v788h-170z " />
<glyph unicode="g" horiz-adv-x="1067" d="M31 -139q0 67 47 117.5t141 89.5q-61 18 -85.5 53.5t-24.5 95.5q0 70 41 118.5t90 80.5q-69 46 -106.5 115t-37.5 147q0 128 101 225.5t278 97.5q84 0 143 -21.5t113 -54.5q45 -28 85 -45q37 -14 80 -14h11v4q-15 11 -24 28.5t-9 39.5q0 29 22.5 55.5t68.5 26.5 q44 0 73 -32.5t29 -74.5q0 -59 -34.5 -90.5t-88.5 -31.5q-50 0 -88.5 11t-67.5 34l-2 -5q25 -30 45.5 -68t20.5 -85q0 -130 -100.5 -228t-276.5 -98q-58 0 -109 12t-94 33q-18 -29 -28.5 -54t-10.5 -50q0 -51 68 -57t309 -15q191 -7 281 -70.5t90 -173.5q0 -175 -154 -269.5 t-366 -94.5q-175 0 -302.5 66.5t-127.5 181.5zM205 -143q0 -86 63 -120t183 -34q188 0 271 46.5t83 141.5q0 101 -55 125.5t-215 24.5q-81 0 -144.5 2.5t-109.5 9.5q-36 -54 -56 -101t-20 -95zM307 678q0 -163 36.5 -205.5t131.5 -42.5t130.5 42.5t35.5 205.5 q0 162 -35.5 204t-130.5 42t-131.5 -42t-36.5 -204z" />
<glyph unicode="h" horiz-adv-x="1231" d="M37 1339v27l328 135h47v-540l-33 -234l4 -2q89 131 176 203.5t203 72.5q149 0 214.5 -97t65.5 -236v-592h132v-76h-476v76h136v647q0 79 -31.5 111t-106.5 32q-76 0 -138 -38t-146 -123v-629h135v-76h-496v76h152v1188z" />
<glyph unicode="i" horiz-adv-x="600" d="M37 827v27l334 135h47v-913h145v-76h-512v76h162v680zM160 1321q0 57 43 103t100 46t100 -46t43 -103t-43 -103.5t-100 -46.5t-100 46.5t-43 103.5z" />
<glyph unicode="j" horiz-adv-x="563" d="M-123 -229q0 49 36.5 80.5t82.5 31.5q44 0 74 -28.5t30 -75.5q0 -26 -13.5 -52t-45.5 -36v-4q12 -1 23 -1.5t20 -0.5q67 0 98 52.5t31 170.5v844l-176 75v27l338 135h47v-950q0 -207 -94 -316.5t-226 -109.5q-114 0 -169.5 48.5t-55.5 109.5zM160 1321q0 57 43 103 t100 46t100 -46t43 -103t-43 -103.5t-100 -46.5t-100 46.5t-43 103.5z" />
<glyph unicode="k" horiz-adv-x="1200" d="M37 1339v27l328 135h47v-1091l403 483h-127v76h406v-76h-138l-268 -277l354 -540h111v-76h-477v76h129l-246 409l-147 -153v-256h120v-76h-481v76h152v1188z" />
<glyph unicode="l" horiz-adv-x="604" d="M37 1339v27l338 135h47v-1425h145v-76h-516v76h162v1188z" />
<glyph unicode="m" horiz-adv-x="1792" d="M37 827v27l328 135h41l-27 -262l4 -2q81 119 168 197.5t194 78.5q119 0 180.5 -68t86.5 -169q79 105 162 171t178 66q140 0 206 -95.5t66 -231.5v-598h131v-76h-469v76h129v653q0 76 -32 106.5t-105 30.5q-55 0 -119.5 -35.5t-140.5 -107.5v-647h131v-76h-469v76h129v653 q0 76 -32 106.5t-105 30.5q-61 0 -119.5 -39.5t-140.5 -121.5v-629h129v-76h-490v76h152v676z" />
<glyph unicode="n" horiz-adv-x="1231" d="M37 827v27l328 135h41l-27 -262l4 -2q89 131 176 203.5t203 72.5q149 0 214.5 -93.5t65.5 -239.5v-592h132v-76h-476v76h136v647q0 79 -31.5 111t-106.5 32q-76 0 -138 -38t-146 -123v-629h135v-76h-496v76h152v676z" />
<glyph unicode="o" horiz-adv-x="1085" d="M59 494q0 191 138 349t346 158q207 0 345 -158t138 -349t-138 -350.5t-345 -159.5q-208 0 -346 159.5t-138 350.5zM287 494q0 -271 78.5 -348.5t177.5 -77.5t177.5 77.5t78.5 348.5q0 273 -79 348.5t-177 75.5t-177 -76t-79 -348z" />
<glyph unicode="p" horiz-adv-x="1200" d="M37 827v27l328 135h41l-27 -248l4 -2q73 107 162.5 184.5t214.5 77.5q162 0 269.5 -140.5t107.5 -362.5q0 -236 -128.5 -375t-316.5 -139q-79 0 -149 28t-131 92v-397h176v-76h-537v76h152v1045zM412 172q46 -43 100.5 -70.5t132.5 -27.5q52 0 98 14.5t80 46.5 q46 45 67 134t21 229q0 136 -18.5 221.5t-63.5 120.5q-27 21 -63.5 27.5t-60.5 6.5q-110 0 -168 -46t-125 -115v-541z" />
<glyph unicode="q" horiz-adv-x="1139" d="M63 487q0 236 128 375t319 139q81 0 164.5 -35t167.5 -141l108 164h47v-1282h152v-76h-537v76h176v297l33 240l-4 2q-69 -124 -153 -193t-197 -69q-181 0 -292.5 140.5t-111.5 362.5zM289 469q0 -136 25 -221.5t69 -120.5q28 -22 58 -28.5t55 -6.5q102 0 165 53.5 t127 126.5v537q-53 41 -111.5 62.5t-125.5 21.5q-55 0 -97.5 -15t-76.5 -47q-46 -44 -67 -133.5t-21 -228.5z" />
<glyph unicode="r" horiz-adv-x="883" d="M37 827v27l328 135h41l-27 -272l4 -2q70 153 153.5 217.5t172.5 64.5q72 0 115.5 -45t43.5 -106t-39 -106.5t-96 -45.5q-64 0 -94.5 34.5t-30.5 78.5q0 28 13.5 51t25.5 35v4q-60 -12 -119 -67.5t-116 -145.5v-608h180v-76h-541v76h152v676z" />
<glyph unicode="s" horiz-adv-x="901" d="M76 350l55 12q90 -168 165 -230t191 -62q103 0 146 40.5t43 104.5q0 87 -71.5 119.5t-184.5 66.5q-200 60 -265 132t-65 188q0 134 97.5 207t224.5 73q75 0 135 -21t110 -52l39 61h49l19 -297l-49 -12q-77 134 -150.5 186t-152.5 52q-84 0 -131.5 -35.5t-47.5 -102.5 q0 -81 63.5 -113.5t176.5 -66.5q203 -61 282 -131.5t79 -192.5t-90 -207t-257 -85q-102 0 -171 27.5t-130 70.5l-32 -82h-52z" />
<glyph unicode="t" horiz-adv-x="698" d="M33 864v56l153 38l136 377h69v-366h246v-105h-246v-667q0 -48 24 -70.5t93 -22.5q44 0 77 6t62 13l21 -33q-48 -41 -110 -73.5t-150 -32.5q-138 0 -182 83t-44 205v592h-149z" />
<glyph unicode="u" horiz-adv-x="1231" d="M37 893v76h360v-707q0 -79 31.5 -111t106.5 -32q76 0 138 38t146 124v612h-155v76h364v-785l166 -55v-47l-328 -94h-41l27 270l-4 2q-89 -131 -176 -203.5t-203 -72.5q-149 0 -215 93.5t-66 239.5v576h-151z" />
<glyph unicode="v" horiz-adv-x="1133" d="M16 893v76h502v-76h-151l270 -723l250 723h-135v76h364v-76h-110l-373 -909h-121l-379 909h-117z" />
<glyph unicode="w" horiz-adv-x="1679" d="M16 893v76h502v-76h-151l221 -676l188 676h-114v76h448v-76h-123l234 -676l213 676h-136v76h365v-76h-111l-356 -909h-94l-268 768l-256 -768h-109l-336 909h-117z" />
<glyph unicode="x" horiz-adv-x="1106" d="M16 0v76h121l316 401l-314 416h-102v76h510v-76h-150l213 -318l201 318h-133v76h364v-76h-100l-293 -373l332 -444h102v-76h-510v76h150l-231 348l-224 -348h133v-76h-385z" />
<glyph unicode="y" horiz-adv-x="1112" d="M16 893v76h502v-76h-151l260 -711l239 711h-135v76h365v-76h-111l-416 -1028q-57 -144 -123.5 -198t-156.5 -54q-75 0 -121.5 38.5t-46.5 98.5q0 48 31 80.5t77 32.5q45 0 76 -28t31 -79q0 -19 -10.5 -42t-30.5 -36v-4q76 0 121.5 61t83.5 167l35 98h-33l-369 893h-117z " />
<glyph unicode="z" horiz-adv-x="993" d="M61 0v45l598 858l-331 -24l-156 -254h-45l41 344h739v-41l-600 -862l391 24l168 295h49l-41 -385h-813z" />
<glyph unicode="{" horiz-adv-x="803" d="M45 575v66l139 10q80 6 100.5 42t20.5 83q0 58 -54 220t-54 245q0 149 121.5 204.5t386.5 55.5v-65q-198 -32 -253.5 -60.5t-45.5 -85.5l69 -450q14 -92 -25.5 -148.5t-138.5 -79.5v-6q99 -23 139.5 -79t24.5 -148l-69 -438q-10 -57 45.5 -85.5t253.5 -60.5v-65 q-265 0 -386.5 61t-121.5 211q0 84 54 232t54 206q0 48 -20.5 83.5t-100.5 41.5z" />
<glyph unicode="|" horiz-adv-x="461" d="M174 -270v1771h113v-1771h-113z" />
<glyph unicode="}" horiz-adv-x="803" d="M98 -205q197 32 253 60.5t46 85.5l-69 438q-16 92 24 148t140 79v6q-100 23 -139 79.5t-25 148.5l69 450q10 57 -46 85.5t-253 60.5v65q265 0 386.5 -55.5t121.5 -204.5q0 -83 -54 -245t-54 -220q0 -47 20.5 -83t99.5 -42l140 -10v-66l-140 -10q-79 -6 -99.5 -41.5 t-20.5 -83.5q0 -58 54 -206t54 -232q0 -150 -121.5 -211t-386.5 -61v65z" />
<glyph unicode="~" horiz-adv-x="958" d="M70 481q64 165 129.5 247.5t160.5 82.5q32 0 69.5 -9.5t80.5 -29.5l127 -57q54 -25 78.5 -5t70.5 87l48 67l55 -26q-64 -166 -130 -247t-161 -81q-32 0 -69 9t-80 28l-113 49q-17 7 -31 10.5t-26 3.5q-26 0 -49.5 -20t-57.5 -68l-47 -67z" />
<glyph unicode="&#xa1;" horiz-adv-x="578" d="M143 858q0 57 44.5 100t101.5 43t101 -43t44 -100t-44 -101t-101 -44t-101.5 44t-44.5 101zM145 -262q0 15 1.5 32t5.5 35l92 512v254h90v-254l92 -512q3 -18 4.5 -35t1.5 -32q0 -96 -48 -137t-95 -41q-48 0 -96 41t-48 137z" />
<glyph unicode="&#xa2;" horiz-adv-x="961" d="M63 494q0 191 127.5 349t364.5 158q43 0 81.5 -6t72.5 -16l104 240h90l-121 -273q48 -31 74.5 -75t26.5 -101q0 -51 -34.5 -90t-94.5 -39q-28 0 -51 9t-39 26l-240 -547q35 -23 79.5 -32t98.5 -9q75 0 128.5 12.5t113.5 34.5l20 -37q-69 -47 -146.5 -80.5t-189.5 -33.5 q-43 0 -82.5 7t-74.5 17l-95 -217h-90l111 252q-115 67 -174.5 191.5t-59.5 259.5zM291 514q0 -118 17 -197.5t52 -128.5l267 607q21 49 47.5 69.5t58.5 30.5v4q-26 9 -63 15t-95 6q-125 0 -204.5 -80.5t-79.5 -325.5z" />
<glyph unicode="&#xa3;" horiz-adv-x="1251" d="M18 158q0 88 75.5 149.5t197.5 61.5q23 0 51.5 -5t60.5 -12q-12 57 -39 126t-55 143h-217v100h180q-22 64 -37.5 128t-15.5 122q0 203 140.5 328.5t347.5 125.5q157 0 263.5 -72.5t106.5 -199.5q0 -76 -41 -125t-108 -49q-60 0 -97.5 38.5t-37.5 92.5q0 61 45 106.5 t123 38.5v5q-25 22 -73 37.5t-124 15.5q-154 0 -230.5 -99t-76.5 -258q0 -54 5.5 -114.5t14.5 -120.5h397v-100h-380q13 -84 25.5 -155t12.5 -108q0 -10 -0.5 -20t-1.5 -21q121 -37 240 -75.5t182 -38.5q86 0 116.5 43.5t64.5 154.5h53q0 -207 -56.5 -312t-189.5 -105 q-124 0 -228 74.5t-208 138.5q-37 -100 -114 -157.5t-175 -57.5q-81 0 -139 44.5t-58 131.5zM113 158q0 -45 27.5 -70t80.5 -25q67 0 121.5 49.5t67.5 133.5q-31 12 -63 19t-66 7q-69 0 -118.5 -25.5t-49.5 -88.5z" />
<glyph unicode="&#xa5;" horiz-adv-x="1368" d="M31 1343v66h587v-66l-178 -51l320 -610l278 621l-184 40v66h483v-66l-161 -40l-281 -535h328v-100h-381l-25 -47v-129h406v-101h-406v-285l199 -40v-66h-635v66l199 40v285h-406v101h406v102l-43 74h-363v100h307l-297 524z" />
<glyph unicode="&#xa6;" horiz-adv-x="461" d="M174 -270v833h113v-833h-113zM174 700v801h113v-801h-113z" />
<glyph unicode="&#xa7;" horiz-adv-x="1149" d="M55 791q0 119 69.5 185.5t151.5 94.5q-1 14 -1.5 29t-0.5 30q7 146 111.5 220.5t232.5 74.5q147 0 225.5 -65t78.5 -166q0 -72 -41.5 -114t-96.5 -42q-51 0 -86.5 37t-35.5 84q0 57 34 91.5t101 41.5v4q-23 17 -61 30t-95 13q-98 0 -145.5 -43.5t-51.5 -113.5 q-3 -75 49 -146t234 -225q203 -171 285 -270.5t82 -204.5q0 -124 -71 -191.5t-155 -95.5q3 -13 3.5 -27.5t0.5 -29.5q-4 -146 -111 -220.5t-229 -74.5q-142 0 -231.5 69t-89.5 173q0 72 42 115.5t99 43.5q55 0 92 -38t37 -87q0 -59 -32.5 -96t-102.5 -43v-4q23 -15 63.5 -29 t100.5 -14q92 0 140.5 41.5t51.5 112.5q4 75 -60.5 145.5t-246.5 224.5q-204 173 -272 273t-68 207zM219 854q0 -76 58.5 -148.5t254.5 -246.5q132 -118 205 -192t105 -134q44 22 66 58t22 83q0 74 -74.5 146t-265.5 244q-130 116 -196.5 189.5t-94.5 131.5q-40 -22 -60 -55 t-20 -76z" />
<glyph unicode="&#xa8;" horiz-adv-x="1024" d="M170 1272q0 50 40 90.5t91 40.5t91 -40.5t40 -90.5q0 -51 -40 -91t-91 -40t-91 40t-40 91zM592 1272q0 50 40 90.5t91 40.5t91 -40.5t40 -90.5q0 -51 -40 -91t-91 -40t-91 40t-40 91z" />
<glyph unicode="&#xa9;" d="M76 698q0 274 193.5 500.5t500.5 226.5q306 0 509.5 -226.5t203.5 -500.5q0 -272 -200.5 -493t-512.5 -221q-313 0 -503.5 221t-190.5 493zM166 698q0 -254 163.5 -445.5t440.5 -191.5q275 0 449 191.5t174 445.5q0 255 -177 452.5t-446 197.5q-270 0 -437 -197.5 t-167 -452.5zM348 702q0 175 123.5 314t316.5 139q80 0 131.5 -21.5t90.5 -52.5l34 66h52l26 -332l-47 -14q-89 165 -150 215.5t-134 50.5q-106 0 -163 -80t-57 -299q0 -197 64 -274.5t180 -77.5q90 0 157 44t111 107l60 -38q-55 -93 -145.5 -149t-209.5 -56 q-197 0 -318.5 136t-121.5 322z" />
<glyph unicode="&#xaa;" horiz-adv-x="1026" d="M109 709q0 116 97 180.5t271 99.5l139 29v121q0 116 -59 151t-168 35q-47 0 -77.5 -5.5t-55.5 -12.5v-4q55 -16 76.5 -50.5t21.5 -72.5q0 -43 -31 -74t-81 -31q-54 0 -86.5 36t-32.5 91q0 112 117.5 167.5t232.5 55.5q165 0 253.5 -82t88.5 -323v-326q0 -43 27.5 -55 t111.5 -16v-48q-21 -15 -70.5 -38t-109.5 -23q-69 0 -113.5 37.5t-44.5 101.5v37q-43 -69 -117.5 -124.5t-164.5 -55.5q-101 0 -163 54.5t-62 144.5zM309 748q0 -60 28 -82.5t71 -22.5q64 0 114 28.5t94 76.5v217l-139 -50q-102 -37 -135 -70t-33 -97z" />
<glyph unicode="&#xab;" horiz-adv-x="1071" d="M88 451v69l358 297l58 -51l-199 -344l199 -242l-58 -53zM537 451v69l399 344l57 -51l-239 -391l239 -285l-57 -53z" />
<glyph unicode="&#xae;" horiz-adv-x="1071" d="M47 997q0 201 144.5 344.5t345.5 143.5q200 0 343.5 -143.5t143.5 -344.5q0 -200 -143.5 -343.5t-343.5 -143.5q-201 0 -345.5 143.5t-144.5 343.5zM123 997q0 -183 120.5 -302.5t293.5 -119.5q172 0 292.5 119.5t120.5 302.5q0 182 -120.5 302t-292.5 120 q-173 0 -293.5 -120t-120.5 -302zM276 743v39l74 19v409l-74 19v39h275q87 0 149 -37t62 -109q0 -60 -46.5 -90t-107.5 -41v-2q40 -4 71 -24t54 -66l51 -102l41 -15v-39h-143q-19 0 -28 9.5t-13 21.5q-47 131 -68.5 161t-70.5 30h-19v-164l62 -19v-39h-269zM483 1024h31 q67 0 90 17t23 77q0 61 -21.5 74.5t-81.5 13.5h-41v-182z" />
<glyph unicode="&#xaf;" horiz-adv-x="1024" d="M236 1198v137h550v-137h-550z" />
<glyph unicode="&#xb0;" horiz-adv-x="635" d="M55 1169q0 104 79 180t183 76t183.5 -76t79.5 -180t-79.5 -180t-183.5 -76t-183 76t-79 180zM164 1169q0 -84 45 -128t108 -44t108.5 44t45.5 128t-45.5 128t-108.5 44t-108 -44t-45 -128z" />
<glyph unicode="&#xb2;" horiz-adv-x="717" d="M20 535v102q222 136 332.5 230.5t110.5 248.5q0 98 -46.5 155.5t-150.5 57.5q-41 0 -71 -12t-43 -29v-4q51 -1 82.5 -32.5t31.5 -80.5q0 -38 -28 -67t-74 -29q-45 0 -79 32t-34 95q0 92 83.5 157.5t205.5 65.5q131 0 218 -76.5t87 -203.5q0 -165 -167.5 -292.5 t-340.5 -201.5l420 43l53 111h52l-25 -270h-617z" />
<glyph unicode="&#xb3;" horiz-adv-x="692" d="M23 721q0 46 28.5 76t65.5 30t62.5 -25t25.5 -59t-23 -63.5t-73 -32.5v-4q10 -12 52.5 -29.5t106.5 -17.5q98 0 152.5 45t54.5 137q0 93 -55.5 133.5t-134.5 40.5q-26 0 -47 -4t-37 -8l-17 53q110 43 167 93.5t57 113.5q0 61 -37 90t-97 29q-54 0 -91.5 -26.5 t-37.5 -86.5q0 -13 3.5 -31t7.5 -30l-39 -17q-14 16 -25.5 43t-11.5 52q0 87 67 144.5t179 57.5q114 0 178.5 -53.5t64.5 -128.5q0 -64 -49 -109.5t-117 -68.5v-4q95 -9 170.5 -75.5t75.5 -188.5t-97.5 -200.5t-238.5 -78.5q-137 0 -213.5 63t-76.5 140z" />
<glyph unicode="&#xb4;" horiz-adv-x="1024" d="M326 1155l90 59l155 183q28 32 56.5 45.5t54.5 13.5t48 -11t32 -30q7 -12 12.5 -28t5.5 -31q0 -32 -23 -63.5t-77 -53.5l-225 -88l-93 -59z" />
<glyph unicode="&#xb5;" horiz-adv-x="1231" d="M37 893v76h360v-707q0 -79 31.5 -111t106.5 -32q76 0 138 38t146 124v612h-155v76h364v-785l166 -55v-47l-328 -94h-41l27 270l-4 2q-89 -131 -174.5 -203.5t-194.5 -72.5q-73 0 -133 36.5t-98 112.5l-6 -4l116 -283q13 -31 19 -57t6 -49q0 -61 -33 -95t-76 -34 q-50 0 -90.5 36t-40.5 117q0 14 1.5 28.5t5.5 31.5l38 221v848h-151z" />
<glyph unicode="&#xb6;" horiz-adv-x="1282" d="M45 1018q0 187 137.5 289t319.5 102h710v-66l-192 -40v-1014q0 -239 -154 -332.5t-278 -93.5q-134 0 -221.5 60t-87.5 179q0 57 38.5 97.5t98.5 40.5q57 0 95 -36t38 -85q0 -61 -35.5 -96t-95.5 -41v-5q13 -9 47.5 -17.5t66.5 -8.5q92 0 140.5 50.5t48.5 156.5v493 l-125 -22q-34 -6 -65 -9.5t-62 -3.5q-199 0 -311.5 114.5t-112.5 287.5zM350 1020q0 -168 45 -233.5t166 -65.5q14 0 29.5 0.5t32.5 1.5l98 8v584h-135q-118 0 -177 -54t-59 -241zM756 -18l4 -7q69 46 113.5 112t44.5 179v1049h-95v-1137q0 -58 -16.5 -110t-50.5 -86z" />
<glyph unicode="&#xb7;" horiz-adv-x="537" d="M123 578q0 56 44.5 100.5t100.5 44.5q57 0 101.5 -44.5t44.5 -100.5q0 -57 -44.5 -100.5t-101.5 -43.5q-56 0 -100.5 43.5t-44.5 100.5z" />
<glyph unicode="&#xb8;" horiz-adv-x="1024" d="M313 -371l17 39q34 -10 72.5 -19t84.5 -9q51 0 82 14t31 45q0 29 -35.5 51t-124.5 29l-14 22l127 199h88l-92 -109q96 -22 142 -70.5t46 -105.5q0 -64 -59 -103.5t-154 -39.5q-67 0 -126.5 20.5t-84.5 36.5z" />
<glyph unicode="&#xb9;" horiz-adv-x="559" d="M31 535v61l170 33v620h-166v56l268 120h76v-796l162 -33v-61h-510z" />
<glyph unicode="&#xba;" horiz-adv-x="963" d="M47 969q0 171 127 313.5t313 142.5q187 0 314 -142.5t127 -313.5q0 -173 -127 -316t-314 -143q-186 0 -313 143t-127 316zM264 969q0 -243 69 -310t154 -67q87 0 156.5 67t69.5 310q0 246 -70 310t-156 64q-85 0 -154 -65t-69 -309z" />
<glyph unicode="&#xbb;" horiz-adv-x="1071" d="M78 135l239 391l-239 285l57 53l400 -366v-70l-400 -344zM567 182l199 344l-199 242l58 53l358 -323v-70l-358 -297z" />
<glyph unicode="&#xbc;" horiz-adv-x="1872" d="M31 535v61l170 33v620h-166v56l268 120h76v-796l162 -33v-61h-510zM389 0l991 1409h115l-991 -1409h-115zM1096 221v101l432 552h155v-544h136v-109h-136v-133l132 -27v-61h-447v61l143 27v133h-415zM1178 330h333v379z" />
<glyph unicode="&#xbd;" horiz-adv-x="1898" d="M31 535v61l170 33v620h-166v56l268 120h76v-796l162 -33v-61h-510zM389 0l991 1409h115l-991 -1409h-115zM1202 0v102q222 137 332.5 231.5t110.5 248.5q0 98 -46.5 155.5t-150.5 57.5q-41 0 -71 -12.5t-44 -28.5v-4q52 -1 83.5 -32.5t31.5 -80.5q0 -38 -28 -67t-74 -29 q-45 0 -79 32t-34 95q0 92 83.5 157.5t205.5 65.5q131 0 218 -77t87 -204q0 -165 -168 -292.5t-340 -200.5l420 43l53 110h51l-24 -270h-617z" />
<glyph unicode="&#xbe;" horiz-adv-x="1903" d="M23 721q0 46 28.5 76t65.5 30t62.5 -25t25.5 -59t-23 -63.5t-73 -32.5v-4q10 -12 52.5 -29.5t106.5 -17.5q98 0 152.5 45t54.5 137q0 93 -55.5 133.5t-134.5 40.5q-26 0 -47 -4t-37 -8l-17 53q110 43 167 93.5t57 113.5q0 61 -37 90t-97 29q-54 0 -91.5 -26.5 t-37.5 -86.5q0 -13 3.5 -31t7.5 -30l-39 -17q-14 16 -25.5 43t-11.5 52q0 87 67 144.5t179 57.5q114 0 178.5 -53.5t64.5 -128.5q0 -64 -49 -109.5t-117 -68.5v-4q95 -9 170.5 -75.5t75.5 -188.5t-97.5 -200.5t-238.5 -78.5q-137 0 -213.5 63t-76.5 140zM420 0l991 1409h115 l-991 -1409h-115zM1126 221v101l433 552h155v-544h135v-109h-135v-133l131 -27v-61h-446v61l143 27v133h-416zM1208 330h334v379z" />
<glyph unicode="&#xbf;" horiz-adv-x="926" d="M102 -98q0 160 100 244.5t253 168.5q54 31 71 58t17 59q0 40 -40.5 54.5t-158.5 17.5v53q22 10 56.5 20.5t78.5 10.5q74 0 125 -47t51 -129q0 -78 -59 -148t-137 -139q-77 -67 -112.5 -121t-35.5 -133q0 -122 67.5 -165.5t168.5 -43.5q110 0 177.5 58.5t66.5 148.5h-5 q-16 -34 -41 -50t-57 -16q-41 0 -74.5 30.5t-33.5 76.5q0 47 32.5 78.5t81.5 31.5q83 0 123.5 -57t40.5 -135q0 -92 -90 -180t-264 -88q-194 0 -298 100.5t-104 241.5zM350 858q0 57 44.5 100t101.5 43q56 0 100.5 -43t44.5 -100t-44.5 -101t-100.5 -44q-57 0 -101.5 44 t-44.5 101z" />
<glyph unicode="&#xc0;" horiz-adv-x="1604" d="M20 0v66l181 40l581 1324h88l553 -1324l160 -40v-66h-600v66l188 40l-167 422h-500l-168 -422l178 -40v-66h-494zM532 1749q0 15 5.5 31t12.5 28q11 19 33 30t47 11q26 0 54.5 -13.5t56.5 -45.5l156 -183l90 -59l-37 -63l-92 59l-226 88q-53 22 -76.5 53.5t-23.5 63.5z M541 623h424l-211 530z" />
<glyph unicode="&#xc1;" horiz-adv-x="1604" d="M20 0v66l181 40l581 1324h88l553 -1324l160 -40v-66h-600v66l188 40l-167 422h-500l-168 -422l178 -40v-66h-494zM541 623h424l-211 530zM614 1548l90 59l155 183q28 32 56.5 45.5t54.5 13.5t48 -11t32 -30q7 -12 12.5 -28t5.5 -31q0 -32 -23 -63.5t-77 -53.5l-225 -88 l-93 -59z" />
<glyph unicode="&#xc2;" horiz-adv-x="1604" d="M20 0v66l181 40l581 1324h88l553 -1324l160 -40v-66h-600v66l188 40l-167 422h-500l-168 -422l178 -40v-66h-494zM541 623h424l-211 530zM544 1534q81 82 126.5 148t65.5 106q27 54 43 81t48 27t49 -27t44 -81q20 -40 66.5 -105.5t127.5 -148.5l-37 -43l-248 162 l-248 -162z" />
<glyph unicode="&#xc3;" horiz-adv-x="1604" d="M20 0v66l181 40l581 1324h88l553 -1324l160 -40v-66h-600v66l188 40l-167 422h-500l-168 -422l178 -40v-66h-494zM479 1542q59 121 123 189.5t145 68.5q51 0 112 -31l117 -55q11 -5 20.5 -8t18.5 -3q25 0 47.5 19.5t52.5 56.5l41 50l47 -29q-59 -121 -123 -189.5 t-145 -68.5q-51 0 -112 31l-117 55q-11 5 -20.5 8t-18.5 3q-25 0 -47.5 -19.5t-52.5 -57.5l-41 -49zM541 623h424l-211 530z" />
<glyph unicode="&#xc4;" horiz-adv-x="1604" d="M20 0v66l181 40l581 1324h88l553 -1324l160 -40v-66h-600v66l188 40l-167 422h-500l-168 -422l178 -40v-66h-494zM479 1665q0 50 40 90.5t91 40.5t91 -40.5t40 -90.5q0 -51 -40 -91t-91 -40t-91 40t-40 91zM541 623h424l-211 530zM901 1665q0 50 40 90.5t91 40.5 t91 -40.5t40 -90.5q0 -51 -40 -91t-91 -40t-91 40t-40 91z" />
<glyph unicode="&#xc5;" horiz-adv-x="1604" d="M20 0v66l181 40l571 1299q-72 16 -124 75t-52 134q0 86 67.5 149.5t153.5 63.5t153.5 -63.5t67.5 -149.5q0 -70 -46.5 -127.5t-112.5 -77.5l544 -1303l160 -40v-66h-600v66l188 40l-167 422h-500l-168 -422l178 -40v-66h-494zM541 623h424l-211 530zM694 1614 q0 -67 34.5 -103t88.5 -36t88.5 36t34.5 103t-34.5 103t-88.5 36t-88.5 -36t-34.5 -103z" />
<glyph unicode="&#xc6;" horiz-adv-x="2189" d="M20 0v66l173 38l868 1205l-178 34v66h1124l49 -395l-43 -10l-203 303l-477 36v-581l254 10l88 207h49v-500h-49l-88 191l-254 10v-608l553 30l219 369l49 -10l-61 -461h-1190v66l193 40v404h-484l-274 -404l176 -40v-66h-494zM676 604h420v615z" />
<glyph unicode="&#xc7;" horiz-adv-x="1360" d="M76 705q0 273 192 496.5t492 223.5q130 0 213.5 -39t146.5 -83l54 106h51l49 -504l-47 -12q-137 269 -236.5 349.5t-230.5 80.5q-200 0 -309 -125.5t-109 -513.5q0 -340 113.5 -470t328.5 -130q151 0 268 72.5t189 187.5l64 -45q-89 -151 -223 -233t-322 -82h-4l-78 -93 q96 -22 142 -70.5t46 -105.5q0 -64 -59 -103.5t-154 -39.5q-67 0 -126.5 20.5t-84.5 36.5l17 39q34 -10 72.5 -19t84.5 -9q51 0 82 14t31 45q0 29 -35.5 51t-124.5 29l-14 22l119 189q-271 31 -434.5 239t-163.5 476z" />
<glyph unicode="&#xc8;" horiz-adv-x="1358" d="M72 0v66l192 40v1197l-192 40v66h1104l49 -395l-43 -10l-203 303l-477 36v-587l258 16l84 207h49v-500h-49l-84 191l-258 14v-612l553 30l219 369l49 -10l-61 -461h-1190zM409 1749q0 15 5.5 31t12.5 28q11 19 33 30t47 11q26 0 54.5 -13.5t56.5 -45.5l156 -183l90 -59 l-37 -63l-92 59l-226 88q-53 22 -76.5 53.5t-23.5 63.5z" />
<glyph unicode="&#xc9;" horiz-adv-x="1358" d="M72 0v66l192 40v1197l-192 40v66h1104l49 -395l-43 -10l-203 303l-477 36v-587l258 16l84 207h49v-500h-49l-84 191l-258 14v-612l553 30l219 369l49 -10l-61 -461h-1190zM532 1548l90 59l155 183q28 32 56.5 45.5t54.5 13.5t48 -11t32 -30q7 -12 12.5 -28t5.5 -31 q0 -32 -23 -63.5t-77 -53.5l-225 -88l-93 -59z" />
<glyph unicode="&#xca;" horiz-adv-x="1358" d="M72 0v66l192 40v1197l-192 40v66h1104l49 -395l-43 -10l-203 303l-477 36v-587l258 16l84 207h49v-500h-49l-84 191l-258 14v-612l553 30l219 369l49 -10l-61 -461h-1190zM444 1534q81 82 126.5 148t65.5 106q27 54 43 81t48 27t49 -27t44 -81q20 -40 66.5 -105.5 t127.5 -148.5l-37 -43l-248 162l-248 -162z" />
<glyph unicode="&#xcb;" horiz-adv-x="1358" d="M72 0v66l192 40v1197l-192 40v66h1104l49 -395l-43 -10l-203 303l-477 36v-587l258 16l84 207h49v-500h-49l-84 191l-258 14v-612l553 30l219 369l49 -10l-61 -461h-1190zM356 1665q0 50 40 90.5t91 40.5t91 -40.5t40 -90.5q0 -51 -40 -91t-91 -40t-91 40t-40 91z M778 1665q0 50 40 90.5t91 40.5t91 -40.5t40 -90.5q0 -51 -40 -91t-91 -40t-91 40t-40 91z" />
<glyph unicode="&#xcc;" horiz-adv-x="782" d="M72 0v66l200 40v1197l-200 40v66h639v-66l-201 -40v-1197l201 -40v-66h-639zM123 1749q0 15 5.5 31t12.5 28q11 19 33 30t47 11q26 0 54.5 -13.5t56.5 -45.5l156 -183l90 -59l-37 -63l-92 59l-226 88q-53 22 -76.5 53.5t-23.5 63.5z" />
<glyph unicode="&#xcd;" horiz-adv-x="782" d="M72 0v66l200 40v1197l-200 40v66h639v-66l-201 -40v-1197l201 -40v-66h-639zM206 1548l90 59l155 183q28 32 56.5 45.5t54.5 13.5t48 -11t32 -30q7 -12 12.5 -28t5.5 -31q0 -32 -23 -63.5t-77 -53.5l-225 -88l-93 -59z" />
<glyph unicode="&#xce;" horiz-adv-x="782" d="M72 0v66l200 40v1197l-200 40v66h639v-66l-201 -40v-1197l201 -40v-66h-639zM107 1534q81 82 126.5 148t65.5 106q27 54 43 81t48 27t49 -27t44 -81q20 -40 66.5 -105.5t127.5 -148.5l-37 -43l-248 162l-248 -162z" />
<glyph unicode="&#xcf;" horiz-adv-x="782" d="M50 1665q0 50 40 90.5t91 40.5t91 -40.5t40 -90.5q0 -51 -40 -91t-91 -40t-91 40t-40 91zM72 0v66l200 40v1197l-200 40v66h639v-66l-201 -40v-1197l201 -40v-66h-639zM472 1665q0 50 40 90.5t91 40.5t91 -40.5t40 -90.5q0 -51 -40 -91t-91 -40t-91 40t-40 91z" />
<glyph unicode="&#xd0;" horiz-adv-x="1540" d="M66 614v111h198v578l-192 40v66h649q344 0 543.5 -215.5t199.5 -488.5q0 -272 -199.5 -488.5t-543.5 -216.5h-649v66l192 40v508h-198zM502 94h184q290 0 407 131t117 480q0 365 -123 486.5t-401 121.5h-184v-588h344v-111h-344v-520z" />
<glyph unicode="&#xd1;" horiz-adv-x="1583" d="M72 0v66l192 40v1197l-192 40v66h456l740 -1024l-47 918l-213 40v66h524v-66l-176 -40v-1323h-64l-950 1294l57 -1168l217 -40v-66h-544zM477 1542q59 121 123 189.5t145 68.5q51 0 112 -31l117 -55q11 -5 20.5 -8t18.5 -3q25 0 47.5 19.5t52.5 56.5l41 50l47 -29 q-59 -121 -123 -189.5t-145 -68.5q-51 0 -112 31l-117 55q-11 5 -20.5 8t-18.5 3q-25 0 -47.5 -19.5t-52.5 -57.5l-41 -49z" />
<glyph unicode="&#xd2;" d="M76 698q0 274 198 500.5t506 226.5q309 0 506 -226.5t197 -500.5q0 -272 -195.5 -493t-507.5 -221q-313 0 -508.5 221t-195.5 493zM332 698q0 -345 118 -479.5t330 -134.5q208 0 328.5 134.5t120.5 479.5q0 361 -116 493t-333 132q-219 0 -333.5 -133.5t-114.5 -491.5z M509 1749q0 15 5.5 31t12.5 28q11 19 33 30t47 11q26 0 54.5 -13.5t56.5 -45.5l156 -183l90 -59l-37 -63l-92 59l-226 88q-53 22 -76.5 53.5t-23.5 63.5z" />
<glyph unicode="&#xd3;" d="M76 698q0 274 198 500.5t506 226.5q309 0 506 -226.5t197 -500.5q0 -272 -195.5 -493t-507.5 -221q-313 0 -508.5 221t-195.5 493zM332 698q0 -345 118 -479.5t330 -134.5q208 0 328.5 134.5t120.5 479.5q0 361 -116 493t-333 132q-219 0 -333.5 -133.5t-114.5 -491.5z M592 1548l90 59l155 183q28 32 56.5 45.5t54.5 13.5t48 -11t32 -30q7 -12 12.5 -28t5.5 -31q0 -32 -23 -63.5t-77 -53.5l-225 -88l-93 -59z" />
<glyph unicode="&#xd4;" d="M76 698q0 274 198 500.5t506 226.5q309 0 506 -226.5t197 -500.5q0 -272 -195.5 -493t-507.5 -221q-313 0 -508.5 221t-195.5 493zM332 698q0 -345 118 -479.5t330 -134.5q208 0 328.5 134.5t120.5 479.5q0 361 -116 493t-333 132q-219 0 -333.5 -133.5t-114.5 -491.5z M493 1534q81 82 126.5 148t65.5 106q27 54 43 81t48 27t49 -27t44 -81q20 -40 66.5 -105.5t127.5 -148.5l-37 -43l-248 162l-248 -162z" />
<glyph unicode="&#xd5;" d="M76 698q0 274 198 500.5t506 226.5q309 0 506 -226.5t197 -500.5q0 -272 -195.5 -493t-507.5 -221q-313 0 -508.5 221t-195.5 493zM332 698q0 -345 118 -479.5t330 -134.5q208 0 328.5 134.5t120.5 479.5q0 361 -116 493t-333 132q-219 0 -333.5 -133.5t-114.5 -491.5z M416 1542q59 121 123 189.5t145 68.5q51 0 112 -31l117 -55q11 -5 20.5 -8t18.5 -3q25 0 47.5 19.5t52.5 56.5l41 50l47 -29q-59 -121 -123 -189.5t-145 -68.5q-51 0 -112 31l-117 55q-11 5 -20.5 8t-18.5 3q-25 0 -47.5 -19.5t-52.5 -57.5l-41 -49z" />
<glyph unicode="&#xd6;" d="M76 698q0 274 198 500.5t506 226.5q309 0 506 -226.5t197 -500.5q0 -272 -195.5 -493t-507.5 -221q-313 0 -508.5 221t-195.5 493zM332 698q0 -345 118 -479.5t330 -134.5q208 0 328.5 134.5t120.5 479.5q0 361 -116 493t-333 132q-219 0 -333.5 -133.5t-114.5 -491.5z M436 1665q0 50 40 90.5t91 40.5t91 -40.5t40 -90.5q0 -51 -40 -91t-91 -40t-91 40t-40 91zM858 1665q0 50 40 90.5t91 40.5t91 -40.5t40 -90.5q0 -51 -40 -91t-91 -40t-91 40t-40 91z" />
<glyph unicode="&#xd7;" horiz-adv-x="993" d="M127 344l303 313l-303 316l68 67l301 -313l303 313l67 -67l-303 -316l303 -313l-67 -68l-303 314l-301 -314z" />
<glyph unicode="&#xd8;" d="M76 698q0 274 198 500.5t506 226.5q113 0 214 -34.5t182 -94.5l145 187h127l-195 -250q107 -102 168.5 -244t61.5 -291q0 -272 -195.5 -493t-507.5 -221q-114 0 -216.5 33.5t-184.5 91.5l-148 -189h-127l197 252q-105 102 -165 240t-60 286zM332 698q0 -130 16.5 -229.5 t50.5 -169.5l705 905q-57 64 -138.5 91.5t-185.5 27.5q-219 0 -333.5 -133.5t-114.5 -491.5zM457 209q56 -66 137.5 -95.5t185.5 -29.5q208 0 328.5 134.5t120.5 479.5q0 138 -17 241t-51 175z" />
<glyph unicode="&#xd9;" horiz-adv-x="1616" d="M72 1343v66h575v-66l-155 -40v-820q0 -229 84.5 -306t291.5 -77q202 0 286.5 81t84.5 311v811l-176 40v66h481v-66l-160 -40l-49 -877q-12 -231 -136.5 -336.5t-375.5 -105.5q-247 0 -408 120t-161 359v840zM518 1749q0 15 5.5 31t12.5 28q11 19 33 30t47 11 q26 0 54.5 -13.5t56.5 -45.5l156 -183l90 -59l-37 -63l-92 59l-226 88q-53 22 -76.5 53.5t-23.5 63.5z" />
<glyph unicode="&#xda;" horiz-adv-x="1616" d="M72 1343v66h575v-66l-155 -40v-820q0 -229 84.5 -306t291.5 -77q202 0 286.5 81t84.5 311v811l-176 40v66h481v-66l-160 -40l-49 -877q-12 -231 -136.5 -336.5t-375.5 -105.5q-247 0 -408 120t-161 359v840zM702 1548l90 59l155 183q28 32 56.5 45.5t54.5 13.5t48 -11 t32 -30q7 -12 12.5 -28t5.5 -31q0 -32 -23 -63.5t-77 -53.5l-225 -88l-93 -59z" />
<glyph unicode="&#xdb;" horiz-adv-x="1616" d="M72 1343v66h575v-66l-155 -40v-820q0 -229 84.5 -306t291.5 -77q202 0 286.5 81t84.5 311v811l-176 40v66h481v-66l-160 -40l-49 -877q-12 -231 -136.5 -336.5t-375.5 -105.5q-247 0 -408 120t-161 359v840zM571 1534q81 82 126.5 148t65.5 106q27 54 43 81t48 27t49 -27 t44 -81q20 -40 66.5 -105.5t127.5 -148.5l-37 -43l-248 162l-248 -162z" />
<glyph unicode="&#xdc;" horiz-adv-x="1616" d="M72 1343v66h575v-66l-155 -40v-820q0 -229 84.5 -306t291.5 -77q202 0 286.5 81t84.5 311v811l-176 40v66h481v-66l-160 -40l-49 -877q-12 -231 -136.5 -336.5t-375.5 -105.5q-247 0 -408 120t-161 359v840zM505 1665q0 50 40 90.5t91 40.5t91 -40.5t40 -90.5 q0 -51 -40 -91t-91 -40t-91 40t-40 91zM927 1665q0 50 40 90.5t91 40.5t91 -40.5t40 -90.5q0 -51 -40 -91t-91 -40t-91 40t-40 91z" />
<glyph unicode="&#xdd;" horiz-adv-x="1491" d="M31 1343v66h602v-66l-178 -51l370 -604l328 615l-184 40v66h491v-66l-162 -40l-419 -682v-515l198 -40v-66h-635v66l199 40v490l-457 696zM682 1548l90 59l155 183q28 32 56.5 45.5t54.5 13.5t48 -11t32 -30q7 -12 12.5 -28t5.5 -31q0 -32 -23 -63.5t-77 -53.5l-225 -88 l-93 -59z" />
<glyph unicode="&#xde;" horiz-adv-x="1313" d="M70 0v66l192 40v1197l-192 40v66h628v-66l-198 -40v-162h233q220 0 376.5 -109.5t156.5 -306.5q0 -185 -131.5 -308.5t-354.5 -123.5q-35 0 -72 4t-75 10l-133 23v-224l198 -40v-66h-628zM500 410l168 -15q28 -3 52 -3.5t46 -0.5q168 0 211 77.5t43 256.5q0 204 -68 263 t-243 59h-209v-637z" />
<glyph unicode="&#xdf;" horiz-adv-x="1325" d="M33 864v56l170 38v52q0 296 151.5 422.5t307.5 126.5q134 0 259.5 -77.5t125.5 -267.5q0 -122 -89 -205t-202 -114v-4q203 -31 349 -164.5t146 -341.5q0 -175 -104.5 -288t-288.5 -113q-162 0 -248 63t-86 156q0 67 43.5 111t98.5 44q51 0 90 -38t39 -89 q0 -50 -29.5 -92.5t-106.5 -48.5v-4q17 -9 45 -14.5t72 -5.5q115 0 186.5 68t71.5 235q0 166 -87.5 310t-332.5 167v74q128 24 192 92.5t64 195.5q0 128 -50.5 198.5t-168.5 70.5q-130 0 -184.5 -88.5t-54.5 -247.5v-1141h-361v76h152v788h-170z" />
<glyph unicode="&#xe0;" horiz-adv-x="1026" d="M63 203q0 130 106.5 197t303.5 108l156 33v141q0 133 -66.5 175t-185.5 42q-55 0 -99 -8.5t-69 -16.5v-4q63 -16 86.5 -53t23.5 -74q0 -44 -32 -74t-82 -30q-54 0 -87.5 36t-33.5 91q0 115 130.5 175t254.5 60q182 0 275.5 -91.5t93.5 -358.5v-371q0 -47 29 -60t124 -18 v-47q-25 -16 -72.5 -41.5t-113.5 -25.5q-77 0 -126.5 41.5t-49.5 111.5v43q-51 -75 -137 -137.5t-179 -62.5q-111 0 -180.5 60t-69.5 159zM224 1356q0 15 5.5 31t12.5 28q11 19 33 30t47 11q26 0 54.5 -13.5t56.5 -45.5l156 -183l90 -59l-37 -63l-92 59l-226 88 q-53 22 -76.5 53.5t-23.5 63.5zM274 246q0 -66 30 -95.5t91 -29.5q74 0 128.5 30.5t105.5 81.5v259l-156 -54q-125 -43 -162 -85.5t-37 -106.5z" />
<glyph unicode="&#xe1;" horiz-adv-x="1026" d="M63 203q0 130 106.5 197t303.5 108l156 33v141q0 133 -66.5 175t-185.5 42q-55 0 -99 -8.5t-69 -16.5v-4q63 -16 86.5 -53t23.5 -74q0 -44 -32 -74t-82 -30q-54 0 -87.5 36t-33.5 91q0 115 130.5 175t254.5 60q182 0 275.5 -91.5t93.5 -358.5v-371q0 -47 29 -60t124 -18 v-47q-25 -16 -72.5 -41.5t-113.5 -25.5q-77 0 -126.5 41.5t-49.5 111.5v43q-51 -75 -137 -137.5t-179 -62.5q-111 0 -180.5 60t-69.5 159zM274 246q0 -66 30 -95.5t91 -29.5q74 0 128.5 30.5t105.5 81.5v259l-156 -54q-125 -43 -162 -85.5t-37 -106.5zM288 1155l90 59 l155 183q28 32 56.5 45.5t54.5 13.5t48 -11t32 -30q7 -12 12.5 -28t5.5 -31q0 -32 -23 -63.5t-77 -53.5l-225 -88l-93 -59z" />
<glyph unicode="&#xe2;" horiz-adv-x="1026" d="M63 203q0 130 106.5 197t303.5 108l156 33v141q0 133 -66.5 175t-185.5 42q-55 0 -99 -8.5t-69 -16.5v-4q63 -16 86.5 -53t23.5 -74q0 -44 -32 -74t-82 -30q-54 0 -87.5 36t-33.5 91q0 115 130.5 175t254.5 60q182 0 275.5 -91.5t93.5 -358.5v-371q0 -47 29 -60t124 -18 v-47q-25 -16 -72.5 -41.5t-113.5 -25.5q-77 0 -126.5 41.5t-49.5 111.5v43q-51 -75 -137 -137.5t-179 -62.5q-111 0 -180.5 60t-69.5 159zM203 1141q81 82 126.5 148t65.5 106q27 54 43 81t48 27t49 -27t44 -81q20 -40 66.5 -105.5t127.5 -148.5l-37 -43l-248 162l-248 -162 zM274 246q0 -66 30 -95.5t91 -29.5q74 0 128.5 30.5t105.5 81.5v259l-156 -54q-125 -43 -162 -85.5t-37 -106.5z" />
<glyph unicode="&#xe3;" horiz-adv-x="1026" d="M63 203q0 130 106.5 197t303.5 108l156 33v141q0 133 -66.5 175t-185.5 42q-55 0 -99 -8.5t-69 -16.5v-4q63 -16 86.5 -53t23.5 -74q0 -44 -32 -74t-82 -30q-54 0 -87.5 36t-33.5 91q0 115 130.5 175t254.5 60q182 0 275.5 -91.5t93.5 -358.5v-371q0 -47 29 -60t124 -18 v-47q-25 -16 -72.5 -41.5t-113.5 -25.5q-77 0 -126.5 41.5t-49.5 111.5v43q-51 -75 -137 -137.5t-179 -62.5q-111 0 -180.5 60t-69.5 159zM126 1149q59 121 123 189.5t145 68.5q51 0 112 -31l117 -55q11 -5 20.5 -8t18.5 -3q25 0 47.5 19.5t52.5 56.5l41 50l47 -29 q-59 -121 -123 -189.5t-145 -68.5q-51 0 -112 31l-117 55q-11 5 -20.5 8t-18.5 3q-25 0 -47.5 -19.5t-52.5 -57.5l-41 -49zM274 246q0 -66 30 -95.5t91 -29.5q74 0 128.5 30.5t105.5 81.5v259l-156 -54q-125 -43 -162 -85.5t-37 -106.5z" />
<glyph unicode="&#xe4;" horiz-adv-x="1026" d="M63 203q0 130 106.5 197t303.5 108l156 33v141q0 133 -66.5 175t-185.5 42q-55 0 -99 -8.5t-69 -16.5v-4q63 -16 86.5 -53t23.5 -74q0 -44 -32 -74t-82 -30q-54 0 -87.5 36t-33.5 91q0 115 130.5 175t254.5 60q182 0 275.5 -91.5t93.5 -358.5v-371q0 -47 29 -60t124 -18 v-47q-25 -16 -72.5 -41.5t-113.5 -25.5q-77 0 -126.5 41.5t-49.5 111.5v43q-51 -75 -137 -137.5t-179 -62.5q-111 0 -180.5 60t-69.5 159zM148 1272q0 50 40 90.5t91 40.5t91 -40.5t40 -90.5q0 -51 -40 -91t-91 -40t-91 40t-40 91zM274 246q0 -66 30 -95.5t91 -29.5 q74 0 128.5 30.5t105.5 81.5v259l-156 -54q-125 -43 -162 -85.5t-37 -106.5zM570 1272q0 50 40 90.5t91 40.5t91 -40.5t40 -90.5q0 -51 -40 -91t-91 -40t-91 40t-40 91z" />
<glyph unicode="&#xe5;" horiz-adv-x="1026" d="M63 203q0 130 106.5 197t303.5 108l156 33v141q0 133 -66.5 175t-185.5 42q-55 0 -99 -8.5t-69 -16.5v-4q63 -16 86.5 -53t23.5 -74q0 -44 -32 -74t-82 -30q-54 0 -87.5 36t-33.5 91q0 115 130.5 175t254.5 60q182 0 275.5 -91.5t93.5 -358.5v-371q0 -47 29 -60t124 -18 v-47q-25 -16 -72.5 -41.5t-113.5 -25.5q-77 0 -126.5 41.5t-49.5 111.5v43q-51 -75 -137 -137.5t-179 -62.5q-111 0 -180.5 60t-69.5 159zM265 1307q0 85 67.5 149t153.5 64t153.5 -64t67.5 -149q0 -86 -67.5 -149.5t-153.5 -63.5t-153.5 63.5t-67.5 149.5zM274 246 q0 -66 30 -95.5t91 -29.5q74 0 128.5 30.5t105.5 81.5v259l-156 -54q-125 -43 -162 -85.5t-37 -106.5zM363 1307q0 -67 34.5 -103.5t88.5 -36.5t88.5 36.5t34.5 103.5t-34.5 103t-88.5 36t-88.5 -36t-34.5 -103z" />
<glyph unicode="&#xe6;" horiz-adv-x="1526" d="M63 203q0 130 106.5 197t303.5 108l156 33v141q0 133 -66.5 175t-185.5 42q-55 0 -99 -8.5t-69 -16.5v-4q63 -16 86.5 -53t23.5 -74q0 -44 -32 -74t-82 -30q-54 0 -87.5 36t-33.5 91q0 115 130.5 175t254.5 60q108 0 184 -32.5t117 -118.5q55 69 133 110t176 41 q156 0 274 -99.5t122 -350.5h-631v-47q0 -246 70.5 -330t215.5 -84q86 0 150.5 14.5t128.5 38.5l21 -45q-72 -46 -160 -80t-197 -34q-150 0 -248 70t-147 177q-64 -95 -161.5 -171t-203.5 -76q-111 0 -180.5 60t-69.5 159zM274 246q0 -66 30 -95.5t91 -29.5q78 0 140.5 37 t128.5 112q-17 49 -26 102t-9 107v13l-156 -54q-125 -43 -162 -85.5t-37 -106.5zM848 635h416q-10 169 -47.5 227t-139.5 58q-87 0 -150 -49t-79 -236z" />
<glyph unicode="&#xe7;" horiz-adv-x="940" d="M59 494q0 191 127.5 349t364.5 158q147 0 237.5 -61.5t90.5 -169.5q0 -51 -35 -90t-94 -39q-52 0 -89.5 35t-37.5 86q0 49 29.5 82.5t82.5 52.5v4q-26 7 -64.5 13t-99.5 6q-125 0 -204.5 -80.5t-79.5 -325.5q0 -254 82 -340t229 -86q75 0 129.5 15t114.5 36l20 -45 q-69 -44 -147.5 -77t-190.5 -33h-8l-78 -93q96 -22 142.5 -70.5t46.5 -105.5q0 -64 -59 -103.5t-154 -39.5q-67 0 -126.5 20.5t-84.5 36.5l16 39q34 -10 73 -19t85 -9q50 0 81 14t31 45q0 29 -35 51t-124 29l-15 22l121 191q-185 32 -281 180.5t-96 321.5z" />
<glyph unicode="&#xe8;" horiz-adv-x="965" d="M59 479q0 207 129 364.5t330 157.5q156 0 274 -99.5t121 -350.5h-630v-47q0 -246 70.5 -330t215.5 -84q86 0 150.5 14.5t128.5 38.5l20 -45q-72 -46 -159 -80t-197 -34q-226 0 -339.5 152t-113.5 343zM246 1356q0 15 5.5 31t12.5 28q11 19 33 30t47 11q26 0 54.5 -13.5 t56.5 -45.5l156 -183l90 -59l-37 -63l-92 59l-226 88q-53 22 -76.5 53.5t-23.5 63.5zM287 635h415q-9 168 -48.5 226.5t-141.5 58.5q-84 0 -146.5 -49t-78.5 -236z" />
<glyph unicode="&#xe9;" horiz-adv-x="965" d="M59 479q0 207 129 364.5t330 157.5q156 0 274 -99.5t121 -350.5h-630v-47q0 -246 70.5 -330t215.5 -84q86 0 150.5 14.5t128.5 38.5l20 -45q-72 -46 -159 -80t-197 -34q-226 0 -339.5 152t-113.5 343zM287 635h415q-9 168 -48.5 226.5t-141.5 58.5q-84 0 -146.5 -49 t-78.5 -236zM310 1155l90 59l155 183q28 32 56.5 45.5t54.5 13.5t48 -11t32 -30q7 -12 12.5 -28t5.5 -31q0 -32 -23 -63.5t-77 -53.5l-225 -88l-93 -59z" />
<glyph unicode="&#xea;" horiz-adv-x="965" d="M59 479q0 207 129 364.5t330 157.5q156 0 274 -99.5t121 -350.5h-630v-47q0 -246 70.5 -330t215.5 -84q86 0 150.5 14.5t128.5 38.5l20 -45q-72 -46 -159 -80t-197 -34q-226 0 -339.5 152t-113.5 343zM219 1141q81 82 126.5 148t65.5 106q27 54 43 81t48 27t49 -27 t44 -81q20 -40 66.5 -105.5t127.5 -148.5l-37 -43l-248 162l-248 -162zM287 635h415q-9 168 -48.5 226.5t-141.5 58.5q-84 0 -146.5 -49t-78.5 -236z" />
<glyph unicode="&#xeb;" horiz-adv-x="965" d="M59 479q0 207 129 364.5t330 157.5q156 0 274 -99.5t121 -350.5h-630v-47q0 -246 70.5 -330t215.5 -84q86 0 150.5 14.5t128.5 38.5l20 -45q-72 -46 -159 -80t-197 -34q-226 0 -339.5 152t-113.5 343zM162 1272q0 50 40 90.5t91 40.5t91 -40.5t40 -90.5q0 -51 -40 -91 t-91 -40t-91 40t-40 91zM287 635h415q-9 168 -48.5 226.5t-141.5 58.5q-84 0 -146.5 -49t-78.5 -236zM584 1272q0 50 40 90.5t91 40.5t91 -40.5t40 -90.5q0 -51 -40 -91t-91 -40t-91 40t-40 91z" />
<glyph unicode="&#xec;" horiz-adv-x="600" d="M7 1356q0 15 5.5 31t12.5 28q11 19 33 30t47 11q26 0 54.5 -13.5t56.5 -45.5l156 -183l90 -59l-37 -63l-92 59l-226 88q-53 22 -76.5 53.5t-23.5 63.5zM51 827v27l334 135h47v-913h145v-76h-512v76h162v680z" />
<glyph unicode="&#xed;" horiz-adv-x="600" d="M37 827v27l334 135h47v-913h145v-76h-512v76h162v680zM157 1155l90 59l155 183q28 32 56.5 45.5t54.5 13.5t48 -11t32 -30q7 -12 12.5 -28t5.5 -31q0 -32 -23 -63.5t-77 -53.5l-225 -88l-93 -59z" />
<glyph unicode="&#xee;" horiz-adv-x="600" d="M37 827v27l334 135h47v-913h145v-76h-512v76h162v680zM37 1141q81 82 126.5 148t65.5 106q27 54 43 81t48 27t49 -27t44 -81q20 -40 66.5 -105.5t127.5 -148.5l-37 -43l-248 162l-248 -162z" />
<glyph unicode="&#xef;" horiz-adv-x="600" d="M-40 1272q0 50 40 90.5t91 40.5t91 -40.5t40 -90.5q0 -51 -40 -91t-91 -40t-91 40t-40 91zM37 827v27l334 135h47v-913h145v-76h-512v76h162v680zM382 1272q0 50 40 90.5t91 40.5t91 -40.5t40 -90.5q0 -51 -40 -91t-91 -40t-91 40t-40 91z" />
<glyph unicode="&#xf0;" horiz-adv-x="1073" d="M53 494q0 191 136 349t335 158q51 0 92 -10.5t76 -29.5q-41 75 -84.5 135t-91.5 110l-231 -106l-43 88l196 90q-44 40 -92 75t-98 70l41 66q64 -31 133.5 -69.5t136.5 -86.5l242 113l43 -88l-195 -90q151 -124 261 -305t110 -422q0 -239 -138 -398t-345 -159 q-208 0 -346 159.5t-138 350.5zM281 494q0 -271 78 -348.5t178 -77.5q99 0 177.5 77.5t78.5 348.5q0 273 -79 348.5t-177 75.5t-177 -76t-79 -348z" />
<glyph unicode="&#xf1;" horiz-adv-x="1231" d="M37 827v27l328 135h41l-27 -262l4 -2q89 131 176 203.5t203 72.5q149 0 214.5 -93.5t65.5 -239.5v-592h132v-76h-476v76h136v647q0 79 -31.5 111t-106.5 32q-76 0 -138 -38t-146 -123v-629h135v-76h-496v76h152v676zM252 1149q59 121 123 189.5t145 68.5q51 0 112 -31 l117 -55q11 -5 20.5 -8t18.5 -3q25 0 47.5 19.5t52.5 56.5l41 50l47 -29q-59 -121 -123 -189.5t-145 -68.5q-51 0 -112 31l-117 55q-11 5 -20.5 8t-18.5 3q-25 0 -47.5 -19.5t-52.5 -57.5l-41 -49z" />
<glyph unicode="&#xf2;" horiz-adv-x="1085" d="M59 494q0 191 138 349t346 158q207 0 345 -158t138 -349t-138 -350.5t-345 -159.5q-208 0 -346 159.5t-138 350.5zM268 1356q0 15 5.5 31t12.5 28q11 19 33 30t47 11q26 0 54.5 -13.5t56.5 -45.5l156 -183l90 -59l-37 -63l-92 59l-226 88q-53 22 -76.5 53.5t-23.5 63.5z M287 494q0 -271 78.5 -348.5t177.5 -77.5t177.5 77.5t78.5 348.5q0 273 -79 348.5t-177 75.5t-177 -76t-79 -348z" />
<glyph unicode="&#xf3;" horiz-adv-x="1085" d="M59 494q0 191 138 349t346 158q207 0 345 -158t138 -349t-138 -350.5t-345 -159.5q-208 0 -346 159.5t-138 350.5zM287 494q0 -271 78.5 -348.5t177.5 -77.5t177.5 77.5t78.5 348.5q0 273 -79 348.5t-177 75.5t-177 -76t-79 -348zM371 1155l90 59l155 183 q28 32 56.5 45.5t54.5 13.5t48 -11t32 -30q7 -12 12.5 -28t5.5 -31q0 -32 -23 -63.5t-77 -53.5l-225 -88l-93 -59z" />
<glyph unicode="&#xf4;" horiz-adv-x="1085" d="M59 494q0 191 138 349t346 158q207 0 345 -158t138 -349t-138 -350.5t-345 -159.5q-208 0 -346 159.5t-138 350.5zM251 1141q81 82 126.5 148t65.5 106q27 54 43 81t48 27t49 -27t44 -81q20 -40 66.5 -105.5t127.5 -148.5l-37 -43l-248 162l-248 -162zM287 494 q0 -271 78.5 -348.5t177.5 -77.5t177.5 77.5t78.5 348.5q0 273 -79 348.5t-177 75.5t-177 -76t-79 -348z" />
<glyph unicode="&#xf5;" horiz-adv-x="1085" d="M59 494q0 191 138 349t346 158q207 0 345 -158t138 -349t-138 -350.5t-345 -159.5q-208 0 -346 159.5t-138 350.5zM174 1149q59 121 123 189.5t145 68.5q51 0 112 -31l117 -55q11 -5 20.5 -8t18.5 -3q25 0 47.5 19.5t52.5 56.5l41 50l47 -29q-59 -121 -123 -189.5 t-145 -68.5q-51 0 -112 31l-117 55q-11 5 -20.5 8t-18.5 3q-25 0 -47.5 -19.5t-52.5 -57.5l-41 -49zM287 494q0 -271 78.5 -348.5t177.5 -77.5t177.5 77.5t78.5 348.5q0 273 -79 348.5t-177 75.5t-177 -76t-79 -348z" />
<glyph unicode="&#xf6;" horiz-adv-x="1085" d="M59 494q0 191 138 349t346 158q207 0 345 -158t138 -349t-138 -350.5t-345 -159.5q-208 0 -346 159.5t-138 350.5zM194 1272q0 50 40 90.5t91 40.5t91 -40.5t40 -90.5q0 -51 -40 -91t-91 -40t-91 40t-40 91zM287 494q0 -271 78.5 -348.5t177.5 -77.5t177.5 77.5 t78.5 348.5q0 273 -79 348.5t-177 75.5t-177 -76t-79 -348zM616 1272q0 50 40 90.5t91 40.5t91 -40.5t40 -90.5q0 -51 -40 -91t-91 -40t-91 40t-40 91z" />
<glyph unicode="&#xf7;" horiz-adv-x="993" d="M106 584v96h781v-96h-781zM362 291q0 51 41 92t93 41q51 0 92 -41t41 -92q0 -52 -41 -91.5t-92 -39.5q-52 0 -93 39.5t-41 91.5zM362 969q0 51 41 92t93 41q51 0 92 -41t41 -92q0 -52 -41 -91.5t-92 -39.5q-52 0 -93 39.5t-41 91.5z" />
<glyph unicode="&#xf8;" horiz-adv-x="1085" d="M59 -84l154 207q-72 73 -113 170.5t-41 200.5q0 191 138 349t346 158q73 0 139 -22.5t123 -60.5l113 151h108l-154 -209q72 -72 113 -168.5t41 -197.5q0 -191 -138 -350.5t-345 -159.5q-74 0 -141 22t-121 62l-113 -152h-109zM287 494q0 -77 6 -136.5t16 -105.5l428 573 q-35 55 -84.5 74t-109.5 19q-98 0 -177 -76t-79 -348zM348 160q35 -55 85 -73.5t110 -18.5q99 0 177.5 77.5t78.5 348.5q0 75 -6 134t-17 103z" />
<glyph unicode="&#xf9;" horiz-adv-x="1231" d="M37 893v76h360v-707q0 -79 31.5 -111t106.5 -32q76 0 138 38t146 124v612h-155v76h364v-785l166 -55v-47l-328 -94h-41l27 270l-4 2q-89 -131 -176 -203.5t-203 -72.5q-149 0 -215 93.5t-66 239.5v576h-151zM317 1356q0 15 5.5 31t12.5 28q11 19 33 30t47 11 q26 0 54.5 -13.5t56.5 -45.5l156 -183l90 -59l-37 -63l-92 59l-226 88q-53 22 -76.5 53.5t-23.5 63.5z" />
<glyph unicode="&#xfa;" horiz-adv-x="1231" d="M37 893v76h360v-707q0 -79 31.5 -111t106.5 -32q76 0 138 38t146 124v612h-155v76h364v-785l166 -55v-47l-328 -94h-41l27 270l-4 2q-89 -131 -176 -203.5t-203 -72.5q-149 0 -215 93.5t-66 239.5v576h-151zM428 1155l90 59l155 183q28 32 56.5 45.5t54.5 13.5t48 -11 t32 -30q7 -12 12.5 -28t5.5 -31q0 -32 -23 -63.5t-77 -53.5l-225 -88l-93 -59z" />
<glyph unicode="&#xfb;" horiz-adv-x="1231" d="M37 893v76h360v-707q0 -79 31.5 -111t106.5 -32q76 0 138 38t146 124v612h-155v76h364v-785l166 -55v-47l-328 -94h-41l27 270l-4 2q-89 -131 -176 -203.5t-203 -72.5q-149 0 -215 93.5t-66 239.5v576h-151zM308 1141q81 82 126.5 148t65.5 106q27 54 43 81t48 27t49 -27 t44 -81q20 -40 66.5 -105.5t127.5 -148.5l-37 -43l-248 162l-248 -162z" />
<glyph unicode="&#xfc;" horiz-adv-x="1231" d="M37 893v76h360v-707q0 -79 31.5 -111t106.5 -32q76 0 138 38t146 124v612h-155v76h364v-785l166 -55v-47l-328 -94h-41l27 270l-4 2q-89 -131 -176 -203.5t-203 -72.5q-149 0 -215 93.5t-66 239.5v576h-151zM215 1272q0 50 40 90.5t91 40.5t91 -40.5t40 -90.5 q0 -51 -40 -91t-91 -40t-91 40t-40 91zM637 1272q0 50 40 90.5t91 40.5t91 -40.5t40 -90.5q0 -51 -40 -91t-91 -40t-91 40t-40 91z" />
<glyph unicode="&#xfd;" horiz-adv-x="1112" d="M16 893v76h502v-76h-151l260 -711l239 711h-135v76h365v-76h-111l-416 -1028q-57 -144 -123.5 -198t-156.5 -54q-75 0 -121.5 38.5t-46.5 98.5q0 48 31 80.5t77 32.5q45 0 76 -28t31 -79q0 -19 -10.5 -42t-30.5 -36v-4q76 0 121.5 61t83.5 167l35 98h-33l-369 893h-117z M471 1155l90 59l155 183q28 32 56.5 45.5t54.5 13.5t48 -11t32 -30q7 -12 12.5 -28t5.5 -31q0 -32 -23 -63.5t-77 -53.5l-225 -88l-93 -59z" />
<glyph unicode="&#xfe;" horiz-adv-x="1147" d="M-4 1339v27l328 135h47v-540l-33 -220l4 -2q73 107 162.5 184.5t214.5 77.5q162 0 269.5 -140.5t107.5 -362.5q0 -236 -130 -375t-321 -139q-76 0 -144.5 28t-129.5 94v-399h176v-76h-537v76h152v1557zM371 172q46 -43 99 -70.5t128 -27.5q55 0 102.5 14.5t81.5 46.5 q46 45 67 134t21 229q0 136 -18.5 221.5t-63.5 120.5q-27 21 -63.5 27.5t-60.5 6.5q-110 0 -168 -46t-125 -115v-541z" />
<glyph unicode="&#xff;" horiz-adv-x="1112" d="M16 893v76h502v-76h-151l260 -711l239 711h-135v76h365v-76h-111l-416 -1028q-57 -144 -123.5 -198t-156.5 -54q-75 0 -121.5 38.5t-46.5 98.5q0 48 31 80.5t77 32.5q45 0 76 -28t31 -79q0 -19 -10.5 -42t-30.5 -36v-4q76 0 121.5 61t83.5 167l35 98h-33l-369 893h-117z M258 1272q0 50 40 90.5t91 40.5t91 -40.5t40 -90.5q0 -51 -40 -91t-91 -40t-91 40t-40 91zM680 1272q0 50 40 90.5t91 40.5t91 -40.5t40 -90.5q0 -51 -40 -91t-91 -40t-91 40t-40 91z" />
<glyph unicode="&#x152;" horiz-adv-x="2193" d="M76 698q0 274 180.5 500.5t472.5 226.5q37 0 71 -4.5t68 -11.5h1112l50 -395l-43 -10l-203 303l-737 28q148 -88 241 -243.5t109 -329.5l205 10l88 207h49v-500h-49l-88 191l-203 8q-4 -181 -93.5 -344t-240.5 -256l795 24l219 369l80 -10l-62 -461h-1220 q-36 -7 -73 -11.5t-75 -4.5q-298 0 -475.5 221t-177.5 493zM332 698q0 -345 100.5 -479.5t296.5 -134.5q191 0 304.5 134.5t113.5 479.5q0 361 -109.5 493t-308.5 132q-203 0 -300 -133.5t-97 -491.5z" />
<glyph unicode="&#x153;" horiz-adv-x="1704" d="M59 494q0 191 138 349t346 158q124 0 217 -57.5t147 -152.5q52 96 141 153t209 57q156 0 274.5 -99.5t121.5 -350.5h-631v-47q0 -246 70.5 -330t216.5 -84q85 0 149.5 14.5t128.5 38.5l21 -45q-72 -46 -160 -80t-197 -34q-133 0 -219.5 53.5t-132.5 142.5 q-55 -89 -146 -142.5t-210 -53.5q-208 0 -346 159.5t-138 350.5zM287 494q0 -271 78.5 -348.5t177.5 -77.5t177.5 77.5t78.5 348.5q0 273 -79 348.5t-177 75.5t-177 -76t-79 -348zM1026 635h416q-9 169 -46.5 227t-140.5 58q-87 0 -149.5 -49t-79.5 -236z" />
<glyph unicode="&#x178;" horiz-adv-x="1491" d="M31 1343v66h602v-66l-178 -51l370 -604l328 615l-184 40v66h491v-66l-162 -40l-419 -682v-515l198 -40v-66h-635v66l199 40v490l-457 696zM450 1665q0 50 40 90.5t91 40.5t91 -40.5t40 -90.5q0 -51 -40 -91t-91 -40t-91 40t-40 91zM872 1665q0 50 40 90.5t91 40.5 t91 -40.5t40 -90.5q0 -51 -40 -91t-91 -40t-91 40t-40 91z" />
<glyph unicode="&#x2c6;" horiz-adv-x="1024" d="M227 1141q81 82 126.5 148t65.5 106q27 54 43 81t48 27t49 -27t44 -81q20 -40 66.5 -105.5t127.5 -148.5l-37 -43l-248 162l-248 -162z" />
<glyph unicode="&#x2dc;" horiz-adv-x="1024" d="M150 1149q59 121 123 189.5t145 68.5q51 0 112 -31l117 -55q11 -5 20.5 -8t18.5 -3q25 0 47.5 19.5t52.5 56.5l41 50l47 -29q-59 -121 -123 -189.5t-145 -68.5q-51 0 -112 31l-117 55q-11 5 -20.5 8t-18.5 3q-25 0 -47.5 -19.5t-52.5 -57.5l-41 -49z" />
<glyph unicode="&#x2000;" horiz-adv-x="948" />
<glyph unicode="&#x2001;" horiz-adv-x="1896" />
<glyph unicode="&#x2002;" horiz-adv-x="948" />
<glyph unicode="&#x2003;" horiz-adv-x="1896" />
<glyph unicode="&#x2004;" horiz-adv-x="632" />
<glyph unicode="&#x2005;" horiz-adv-x="474" />
<glyph unicode="&#x2006;" horiz-adv-x="316" />
<glyph unicode="&#x2007;" horiz-adv-x="316" />
<glyph unicode="&#x2008;" horiz-adv-x="237" />
<glyph unicode="&#x2009;" horiz-adv-x="379" />
<glyph unicode="&#x200a;" horiz-adv-x="105" />
<glyph unicode="&#x2010;" horiz-adv-x="748" d="M147 485v164h453v-164h-453z" />
<glyph unicode="&#x2011;" horiz-adv-x="748" d="M147 485v164h453v-164h-453z" />
<glyph unicode="&#x2012;" horiz-adv-x="748" d="M147 485v164h453v-164h-453z" />
<glyph unicode="&#x2013;" horiz-adv-x="1137" d="M147 512v111h842v-111h-842z" />
<glyph unicode="&#x2014;" horiz-adv-x="1853" d="M147 512v111h1559v-111h-1559z" />
<glyph unicode="&#x2018;" horiz-adv-x="479" d="M96 1124q0 89 68.5 187.5t214.5 144.5l18 -37q-76 -50 -111 -99t-42 -106l4 -4q31 1 82 -24t51 -105q0 -56 -41.5 -93.5t-95.5 -37.5q-55 0 -101.5 42t-46.5 132z" />
<glyph unicode="&#x2019;" horiz-adv-x="479" d="M80 952q76 51 111 99.5t42 105.5l-4 4q-31 -1 -82 24.5t-51 104.5q0 57 41.5 94t95.5 37q55 0 101.5 -42t46.5 -132q0 -89 -68.5 -187.5t-214.5 -144.5z" />
<glyph unicode="&#x201a;" horiz-adv-x="477" d="M80 -205q76 51 111 99.5t42 105.5l-4 4q-31 -1 -82 24.5t-51 104.5q0 57 41.5 94t95.5 37q55 0 101.5 -42t46.5 -132q0 -89 -68.5 -187.5t-214.5 -144.5z" />
<glyph unicode="&#x201c;" horiz-adv-x="883" d="M96 1124q0 89 68.5 187.5t214.5 144.5l18 -37q-76 -50 -111 -99t-42 -106l4 -4q31 1 82 -24t51 -105q0 -56 -41.5 -93.5t-95.5 -37.5q-55 0 -101.5 42t-46.5 132zM502 1124q0 89 68.5 187.5t213.5 144.5l19 -37q-77 -50 -112 -99t-42 -106l4 -4q31 1 82 -24t51 -105 q0 -56 -41 -93.5t-96 -37.5t-101 42t-46 132z" />
<glyph unicode="&#x201d;" horiz-adv-x="883" d="M80 952q76 51 111 99.5t42 105.5l-4 4q-31 -1 -82 24.5t-51 104.5q0 57 41.5 94t95.5 37q55 0 101.5 -42t46.5 -132q0 -89 -68.5 -187.5t-214.5 -144.5zM485 952q77 51 112 99.5t42 105.5l-4 4q-31 -1 -82 24.5t-51 104.5q0 57 41 94t96 37t101 -42t46 -132 q0 -89 -68.5 -187.5t-213.5 -144.5z" />
<glyph unicode="&#x201e;" horiz-adv-x="883" d="M80 -205q76 51 111 99.5t42 105.5l-4 4q-31 -1 -82 24.5t-51 104.5q0 57 41.5 94t95.5 37q55 0 101.5 -42t46.5 -132q0 -89 -68.5 -187.5t-214.5 -144.5zM485 -205q77 51 112 99.5t42 105.5l-4 4q-31 -1 -82 24.5t-51 104.5q0 57 41 94t96 37t101 -42t46 -132 q0 -89 -68.5 -187.5t-213.5 -144.5z" />
<glyph unicode="&#x2022;" horiz-adv-x="754" d="M106 606q0 106 83.5 189.5t187.5 83.5q105 0 187.5 -83.5t82.5 -189.5q0 -104 -82.5 -185t-187.5 -81q-104 0 -187.5 81t-83.5 185z" />
<glyph unicode="&#x2026;" horiz-adv-x="1511" d="M123 127q0 57 44.5 101t100.5 44q57 0 101.5 -44t44.5 -101t-44.5 -100t-101.5 -43q-56 0 -100.5 43t-44.5 100zM610 127q0 57 44.5 101t101.5 44q56 0 100.5 -44t44.5 -101t-44.5 -100t-100.5 -43q-57 0 -101.5 43t-44.5 100zM1098 127q0 57 44 101t101 44t101.5 -44 t44.5 -101t-44.5 -100t-101.5 -43t-101 43t-44 100z" />
<glyph unicode="&#x202f;" horiz-adv-x="379" />
<glyph unicode="&#x2039;" horiz-adv-x="623" d="M88 451v69l399 344l58 -51l-240 -391l240 -285l-58 -53z" />
<glyph unicode="&#x203a;" horiz-adv-x="623" d="M78 135l239 391l-239 285l57 53l400 -366v-70l-400 -344z" />
<glyph unicode="&#x205f;" horiz-adv-x="474" />
<glyph unicode="&#x20ac;" horiz-adv-x="1290" d="M35 485v101h176q-4 28 -6 55.5t-2 56.5q0 16 0.5 32t1.5 32h-170v100h186q51 226 222 394.5t403 168.5q171 0 274 -72.5t103 -197.5q0 -81 -45.5 -131.5t-112.5 -50.5q-61 0 -99 40t-38 95q0 64 48 110t126 42v4q-28 22 -78 39.5t-143 17.5q-153 0 -270.5 -83 t-145.5 -376h409v-100h-415v-64q0 -31 0.5 -58.5t1.5 -53.5h413v-101h-403q29 -238 122 -319.5t220 -81.5q130 0 209 52t145 136l62 -49q-64 -89 -162.5 -164t-269.5 -75q-214 0 -364 147.5t-204 353.5h-194z" />
<glyph unicode="&#x2122;" horiz-adv-x="1810" d="M43 1120l16 289h662l16 -289l-35 -8l-114 225l-115 17v-578l113 -24v-47h-389v47l110 24v578l-114 -17l-115 -225zM819 705v47l96 24v561l-96 25v47h297l180 -475l172 475h295v-47l-88 -25v-561l88 -24v-47h-338v47l84 24v543l-221 -590h-65l-242 590l31 -543l84 -24v-47 h-277z" />
<glyph unicode="&#x25fc;" horiz-adv-x="970" d="M0 0v970h970v-970h-970z" />
</font>
</defs>
</svg>
